G75*
G70*
%OFA0B0*%
%FSLAX24Y24*%
%IPPOS*%
%LPD*%
%AMOC8*
5,1,8,0,0,1.08239X$1,22.5*
%
%ADD10R,0.1000X0.8000*%
%ADD11C,0.0030*%
%ADD12C,0.0050*%
%ADD13C,0.0040*%
%ADD14C,0.0000*%
%ADD15C,0.0060*%
%ADD16C,0.0100*%
%ADD17C,0.0070*%
%ADD18C,0.0020*%
%ADD19R,0.0250X0.0300*%
%ADD20R,0.1100X0.0500*%
%ADD21R,0.0200X0.1000*%
%ADD22R,0.0750X0.0300*%
D10*
X036210Y008600D03*
X045210Y008600D03*
D11*
X041343Y012615D02*
X041247Y012615D01*
X041198Y012663D01*
X041097Y012663D02*
X041097Y012857D01*
X041049Y012905D01*
X040952Y012905D01*
X040904Y012857D01*
X040904Y012663D01*
X040952Y012615D01*
X041049Y012615D01*
X041097Y012663D01*
X041198Y012808D02*
X041247Y012760D01*
X041343Y012760D01*
X041392Y012712D01*
X041392Y012663D01*
X041343Y012615D01*
X041198Y012808D02*
X041198Y012857D01*
X041247Y012905D01*
X041343Y012905D01*
X041392Y012857D01*
X040802Y012905D02*
X040802Y012615D01*
X040609Y012615D02*
X040609Y012905D01*
X040706Y012808D01*
X040802Y012905D01*
X040508Y012905D02*
X040314Y012905D01*
X040314Y012615D01*
X040508Y012615D01*
X040411Y012760D02*
X040314Y012760D01*
X040213Y012615D02*
X040213Y012905D01*
X040020Y012905D02*
X040020Y012615D01*
X040116Y012712D01*
X040213Y012615D01*
X040212Y014383D02*
X040115Y014383D01*
X040163Y014383D02*
X040163Y014576D01*
X040115Y014576D01*
X040014Y014576D02*
X039869Y014576D01*
X039820Y014528D01*
X039820Y014431D01*
X039869Y014383D01*
X040014Y014383D01*
X040014Y014673D01*
X040163Y014673D02*
X040163Y014721D01*
X040311Y014528D02*
X040311Y014431D01*
X040360Y014383D01*
X040456Y014383D01*
X040505Y014431D01*
X040505Y014528D01*
X040456Y014576D01*
X040360Y014576D01*
X040311Y014528D01*
X040901Y014528D02*
X041094Y014528D01*
X041094Y014576D02*
X041094Y014383D01*
X041195Y014383D02*
X041195Y014576D01*
X041340Y014576D01*
X041389Y014528D01*
X041389Y014383D01*
X041538Y014431D02*
X041587Y014383D01*
X041538Y014431D02*
X041538Y014625D01*
X041490Y014576D02*
X041587Y014576D01*
X041686Y014528D02*
X041735Y014576D01*
X041831Y014576D01*
X041880Y014528D01*
X041880Y014479D01*
X041686Y014479D01*
X041686Y014431D02*
X041686Y014528D01*
X041686Y014431D02*
X041735Y014383D01*
X041831Y014383D01*
X041981Y014383D02*
X041981Y014576D01*
X042126Y014576D01*
X042174Y014528D01*
X042174Y014383D01*
X042276Y014383D02*
X042276Y014576D01*
X042421Y014576D01*
X042469Y014528D01*
X042469Y014383D01*
X042570Y014431D02*
X042619Y014479D01*
X042764Y014479D01*
X042764Y014528D02*
X042764Y014383D01*
X042619Y014383D01*
X042570Y014431D01*
X042619Y014576D02*
X042715Y014576D01*
X042764Y014528D01*
X041094Y014576D02*
X040997Y014673D01*
X040901Y014576D01*
X040901Y014383D01*
X039719Y014383D02*
X039574Y014383D01*
X039526Y014431D01*
X039574Y014479D01*
X039719Y014479D01*
X039719Y014528D02*
X039719Y014383D01*
X039719Y014528D02*
X039671Y014576D01*
X039574Y014576D01*
X039424Y014528D02*
X039376Y014479D01*
X039231Y014479D01*
X039231Y014383D02*
X039231Y014673D01*
X039376Y014673D01*
X039424Y014625D01*
X039424Y014528D01*
X039328Y014479D02*
X039424Y014383D01*
X040115Y002480D02*
X040115Y002238D01*
X040163Y002190D01*
X040260Y002190D01*
X040308Y002238D01*
X040308Y002480D01*
X040410Y002432D02*
X040410Y002383D01*
X040458Y002335D01*
X040555Y002335D01*
X040603Y002287D01*
X040603Y002238D01*
X040555Y002190D01*
X040458Y002190D01*
X040410Y002238D01*
X040410Y002432D02*
X040458Y002480D01*
X040555Y002480D01*
X040603Y002432D01*
X040704Y002480D02*
X040849Y002480D01*
X040898Y002432D01*
X040898Y002383D01*
X040849Y002335D01*
X040704Y002335D01*
X040704Y002190D02*
X040704Y002480D01*
X040849Y002335D02*
X040898Y002287D01*
X040898Y002238D01*
X040849Y002190D01*
X040704Y002190D01*
X041293Y002190D02*
X041293Y002480D01*
X041293Y002383D02*
X041439Y002383D01*
X041487Y002335D01*
X041487Y002238D01*
X041439Y002190D01*
X041293Y002190D01*
X041588Y002238D02*
X041636Y002190D01*
X041733Y002190D01*
X041782Y002238D01*
X041782Y002335D01*
X041733Y002383D01*
X041636Y002383D01*
X041588Y002335D01*
X041588Y002238D01*
X041883Y002383D02*
X041980Y002383D01*
X041931Y002432D02*
X041931Y002238D01*
X041980Y002190D01*
X042128Y002238D02*
X042176Y002190D01*
X042128Y002238D02*
X042128Y002432D01*
X042176Y002383D02*
X042079Y002383D01*
X042276Y002335D02*
X042276Y002238D01*
X042324Y002190D01*
X042421Y002190D01*
X042469Y002238D01*
X042469Y002335D01*
X042421Y002383D01*
X042324Y002383D01*
X042276Y002335D01*
X042570Y002383D02*
X042570Y002190D01*
X042667Y002190D02*
X042667Y002335D01*
X042715Y002383D01*
X042764Y002335D01*
X042764Y002190D01*
X042667Y002335D02*
X042619Y002383D01*
X042570Y002383D01*
D12*
X046053Y001557D02*
X046053Y014549D01*
X046052Y014549D02*
X046050Y014615D01*
X046045Y014681D01*
X046035Y014747D01*
X046022Y014812D01*
X046006Y014876D01*
X045986Y014939D01*
X045962Y015001D01*
X045935Y015061D01*
X045905Y015120D01*
X045871Y015177D01*
X045834Y015232D01*
X045794Y015285D01*
X045752Y015336D01*
X045706Y015384D01*
X045658Y015430D01*
X045607Y015472D01*
X045554Y015512D01*
X045499Y015549D01*
X045442Y015583D01*
X045383Y015613D01*
X045323Y015640D01*
X045261Y015664D01*
X045198Y015684D01*
X045134Y015700D01*
X045069Y015713D01*
X045003Y015723D01*
X044937Y015728D01*
X044871Y015730D01*
X036604Y015730D01*
X036538Y015728D01*
X036472Y015723D01*
X036406Y015713D01*
X036341Y015700D01*
X036277Y015684D01*
X036214Y015664D01*
X036152Y015640D01*
X036092Y015613D01*
X036033Y015583D01*
X035976Y015549D01*
X035921Y015512D01*
X035868Y015472D01*
X035817Y015430D01*
X035769Y015384D01*
X035723Y015336D01*
X035681Y015285D01*
X035641Y015232D01*
X035604Y015177D01*
X035570Y015120D01*
X035540Y015061D01*
X035513Y015001D01*
X035489Y014939D01*
X035469Y014876D01*
X035453Y014812D01*
X035440Y014747D01*
X035430Y014681D01*
X035425Y014615D01*
X035423Y014549D01*
X035423Y004313D01*
X036997Y003525D01*
X036997Y001557D01*
X046053Y001557D01*
X049275Y002730D02*
X049500Y002505D01*
X049500Y002805D01*
X049725Y002730D02*
X049275Y002730D01*
X050175Y003509D02*
X050250Y003434D01*
X050550Y003434D01*
X050625Y003509D01*
X050625Y003659D01*
X050550Y003734D01*
X050400Y003734D01*
X050400Y003584D01*
X050250Y003734D02*
X050175Y003659D01*
X050175Y003509D01*
X050175Y003894D02*
X050625Y004194D01*
X050175Y004194D01*
X050175Y004355D02*
X050175Y004580D01*
X050250Y004655D01*
X050550Y004655D01*
X050625Y004580D01*
X050625Y004355D01*
X050175Y004355D01*
X050175Y003894D02*
X050625Y003894D01*
X050550Y005684D02*
X050625Y005759D01*
X050625Y005909D01*
X050550Y005984D01*
X050475Y005984D01*
X050400Y005909D01*
X050400Y005759D01*
X050325Y005684D01*
X050250Y005684D01*
X050175Y005759D01*
X050175Y005909D01*
X050250Y005984D01*
X050175Y006144D02*
X050475Y006144D01*
X050625Y006294D01*
X050475Y006444D01*
X050175Y006444D01*
X050250Y006605D02*
X050175Y006680D01*
X050175Y006830D01*
X050250Y006905D01*
X050325Y006905D01*
X050400Y006830D01*
X050475Y006905D01*
X050550Y006905D01*
X050625Y006830D01*
X050625Y006680D01*
X050550Y006605D01*
X050400Y006755D02*
X050400Y006830D01*
X049725Y007055D02*
X049725Y007355D01*
X049725Y007205D02*
X049275Y007205D01*
X049425Y007055D01*
X048885Y006885D02*
X048885Y006585D01*
X048885Y006735D02*
X048435Y006735D01*
X048585Y006585D01*
X048660Y006424D02*
X048735Y006349D01*
X048735Y006124D01*
X048885Y006124D02*
X048435Y006124D01*
X048435Y006349D01*
X048510Y006424D01*
X048660Y006424D01*
X048735Y006274D02*
X048885Y006424D01*
X048115Y006560D02*
X048040Y006485D01*
X047740Y006785D01*
X048040Y006785D01*
X048115Y006710D01*
X048115Y006560D01*
X048040Y006485D02*
X047740Y006485D01*
X047665Y006560D01*
X047665Y006710D01*
X047740Y006785D01*
X047740Y006324D02*
X048040Y006024D01*
X048115Y006099D01*
X048115Y006249D01*
X048040Y006324D01*
X047740Y006324D01*
X047665Y006249D01*
X047665Y006099D01*
X047740Y006024D01*
X048040Y006024D01*
X048115Y005864D02*
X048115Y005564D01*
X048115Y005714D02*
X047665Y005714D01*
X047815Y005564D01*
X048365Y009964D02*
X048665Y009964D01*
X048815Y010114D01*
X048665Y010264D01*
X048365Y010264D01*
X048440Y010424D02*
X048740Y010424D01*
X048815Y010499D01*
X048815Y010649D01*
X048740Y010724D01*
X048740Y010885D02*
X048815Y010960D01*
X048815Y011110D01*
X048740Y011185D01*
X048440Y011185D02*
X048365Y011110D01*
X048365Y010960D01*
X048440Y010885D01*
X048740Y010885D01*
X048440Y010724D02*
X048365Y010649D01*
X048365Y010499D01*
X048440Y010424D01*
X049415Y011385D02*
X049265Y011535D01*
X049715Y011535D01*
X049715Y011385D02*
X049715Y011685D01*
X049705Y011920D02*
X049255Y011920D01*
X049480Y011695D01*
X049480Y011995D01*
X050155Y012699D02*
X050230Y012624D01*
X050530Y012624D01*
X050605Y012699D01*
X050605Y012849D01*
X050530Y012924D01*
X050380Y012924D01*
X050380Y012774D01*
X050230Y012924D02*
X050155Y012849D01*
X050155Y012699D01*
X050155Y013084D02*
X050605Y013384D01*
X050155Y013384D01*
X050155Y013545D02*
X050155Y013770D01*
X050230Y013845D01*
X050530Y013845D01*
X050605Y013770D01*
X050605Y013545D01*
X050155Y013545D01*
X050155Y013084D02*
X050605Y013084D01*
X050530Y014874D02*
X050605Y014949D01*
X050605Y015099D01*
X050530Y015174D01*
X050455Y015174D01*
X050380Y015099D01*
X050380Y014949D01*
X050305Y014874D01*
X050230Y014874D01*
X050155Y014949D01*
X050155Y015099D01*
X050230Y015174D01*
X050155Y015334D02*
X050455Y015334D01*
X050605Y015484D01*
X050455Y015634D01*
X050155Y015634D01*
X050230Y015795D02*
X050155Y015870D01*
X050155Y016020D01*
X050230Y016095D01*
X050305Y016095D01*
X050605Y015795D01*
X050605Y016095D01*
X049705Y016245D02*
X049705Y016545D01*
X049705Y016395D02*
X049255Y016395D01*
X049405Y016245D01*
X050610Y018050D02*
X045710Y018050D01*
X045710Y022150D01*
X050610Y022150D01*
X050610Y021800D01*
X051210Y021800D01*
X051210Y022150D01*
X051960Y022150D01*
X051960Y018050D01*
X051210Y018050D01*
X051210Y018400D01*
X050610Y018400D01*
X050610Y018050D01*
X049675Y019481D02*
X049448Y019481D01*
X049335Y019594D01*
X049448Y019708D01*
X049675Y019708D01*
X049675Y019840D02*
X049675Y020067D01*
X049675Y019953D02*
X049335Y019953D01*
X049448Y019840D01*
X049505Y019708D02*
X049505Y019481D01*
X049618Y020199D02*
X049675Y020199D01*
X049618Y020199D02*
X049391Y020426D01*
X049335Y020426D01*
X049335Y020199D01*
X049788Y020558D02*
X049675Y020672D01*
X049675Y020615D01*
X049618Y020615D01*
X049618Y020672D01*
X049675Y020672D01*
X049618Y020798D02*
X049675Y020854D01*
X049675Y020968D01*
X049618Y021025D01*
X049505Y021025D01*
X049448Y020968D01*
X049448Y020911D01*
X049505Y020798D01*
X049335Y020798D01*
X049335Y021025D01*
X049448Y021157D02*
X049448Y021214D01*
X049505Y021270D01*
X049448Y021327D01*
X049505Y021384D01*
X049675Y021384D01*
X049675Y021270D02*
X049505Y021270D01*
X049448Y021157D02*
X049675Y021157D01*
X049675Y021516D02*
X049448Y021516D01*
X049448Y021573D01*
X049505Y021629D01*
X049448Y021686D01*
X049505Y021743D01*
X049675Y021743D01*
X049675Y021629D02*
X049505Y021629D01*
X049900Y020100D02*
X049902Y020153D01*
X049908Y020206D01*
X049918Y020258D01*
X049932Y020309D01*
X049949Y020359D01*
X049970Y020408D01*
X049995Y020455D01*
X050023Y020500D01*
X050055Y020543D01*
X050090Y020583D01*
X050127Y020620D01*
X050167Y020655D01*
X050210Y020687D01*
X050255Y020715D01*
X050302Y020740D01*
X050351Y020761D01*
X050401Y020778D01*
X050452Y020792D01*
X050504Y020802D01*
X050557Y020808D01*
X050610Y020810D01*
X050663Y020808D01*
X050716Y020802D01*
X050768Y020792D01*
X050819Y020778D01*
X050869Y020761D01*
X050918Y020740D01*
X050965Y020715D01*
X051010Y020687D01*
X051053Y020655D01*
X051093Y020620D01*
X051130Y020583D01*
X051165Y020543D01*
X051197Y020500D01*
X051225Y020455D01*
X051250Y020408D01*
X051271Y020359D01*
X051288Y020309D01*
X051302Y020258D01*
X051312Y020206D01*
X051318Y020153D01*
X051320Y020100D01*
X051318Y020047D01*
X051312Y019994D01*
X051302Y019942D01*
X051288Y019891D01*
X051271Y019841D01*
X051250Y019792D01*
X051225Y019745D01*
X051197Y019700D01*
X051165Y019657D01*
X051130Y019617D01*
X051093Y019580D01*
X051053Y019545D01*
X051010Y019513D01*
X050965Y019485D01*
X050918Y019460D01*
X050869Y019439D01*
X050819Y019422D01*
X050768Y019408D01*
X050716Y019398D01*
X050663Y019392D01*
X050610Y019390D01*
X050557Y019392D01*
X050504Y019398D01*
X050452Y019408D01*
X050401Y019422D01*
X050351Y019439D01*
X050302Y019460D01*
X050255Y019485D01*
X050210Y019513D01*
X050167Y019545D01*
X050127Y019580D01*
X050090Y019617D01*
X050055Y019657D01*
X050023Y019700D01*
X049995Y019745D01*
X049970Y019792D01*
X049949Y019841D01*
X049932Y019891D01*
X049918Y019942D01*
X049908Y019994D01*
X049902Y020047D01*
X049900Y020100D01*
X041325Y019625D02*
X041025Y019625D01*
X041175Y019625D02*
X041175Y020075D01*
X041025Y019925D01*
X039325Y019925D02*
X039025Y019625D01*
X039325Y019625D01*
X039325Y019925D02*
X039325Y020000D01*
X039250Y020075D01*
X039100Y020075D01*
X039025Y020000D01*
X037325Y020000D02*
X037325Y019925D01*
X037250Y019850D01*
X037325Y019775D01*
X037325Y019700D01*
X037250Y019625D01*
X037100Y019625D01*
X037025Y019700D01*
X037175Y019850D02*
X037250Y019850D01*
X037325Y020000D02*
X037250Y020075D01*
X037100Y020075D01*
X037025Y020000D01*
X030210Y018050D02*
X025310Y018050D01*
X025310Y018400D01*
X024710Y018400D01*
X024710Y018050D01*
X023960Y018050D01*
X023960Y022150D01*
X024710Y022150D01*
X024710Y021800D01*
X025310Y021800D01*
X025310Y022150D01*
X030210Y022150D01*
X030210Y018050D01*
X026698Y019452D02*
X026585Y019566D01*
X026585Y019509D01*
X026528Y019509D01*
X026528Y019566D01*
X026585Y019566D01*
X026528Y019692D02*
X026585Y019748D01*
X026585Y019862D01*
X026528Y019919D01*
X026415Y019919D01*
X026358Y019862D01*
X026358Y019805D01*
X026415Y019692D01*
X026245Y019692D01*
X026245Y019919D01*
X026358Y020051D02*
X026358Y020108D01*
X026415Y020164D01*
X026358Y020221D01*
X026415Y020278D01*
X026585Y020278D01*
X026585Y020164D02*
X026415Y020164D01*
X026358Y020051D02*
X026585Y020051D01*
X026585Y020410D02*
X026358Y020410D01*
X026358Y020467D01*
X026415Y020523D01*
X026358Y020580D01*
X026415Y020637D01*
X026585Y020637D01*
X026585Y020523D02*
X026415Y020523D01*
X024600Y020100D02*
X024602Y020153D01*
X024608Y020206D01*
X024618Y020258D01*
X024632Y020309D01*
X024649Y020359D01*
X024670Y020408D01*
X024695Y020455D01*
X024723Y020500D01*
X024755Y020543D01*
X024790Y020583D01*
X024827Y020620D01*
X024867Y020655D01*
X024910Y020687D01*
X024955Y020715D01*
X025002Y020740D01*
X025051Y020761D01*
X025101Y020778D01*
X025152Y020792D01*
X025204Y020802D01*
X025257Y020808D01*
X025310Y020810D01*
X025363Y020808D01*
X025416Y020802D01*
X025468Y020792D01*
X025519Y020778D01*
X025569Y020761D01*
X025618Y020740D01*
X025665Y020715D01*
X025710Y020687D01*
X025753Y020655D01*
X025793Y020620D01*
X025830Y020583D01*
X025865Y020543D01*
X025897Y020500D01*
X025925Y020455D01*
X025950Y020408D01*
X025971Y020359D01*
X025988Y020309D01*
X026002Y020258D01*
X026012Y020206D01*
X026018Y020153D01*
X026020Y020100D01*
X026018Y020047D01*
X026012Y019994D01*
X026002Y019942D01*
X025988Y019891D01*
X025971Y019841D01*
X025950Y019792D01*
X025925Y019745D01*
X025897Y019700D01*
X025865Y019657D01*
X025830Y019617D01*
X025793Y019580D01*
X025753Y019545D01*
X025710Y019513D01*
X025665Y019485D01*
X025618Y019460D01*
X025569Y019439D01*
X025519Y019422D01*
X025468Y019408D01*
X025416Y019398D01*
X025363Y019392D01*
X025310Y019390D01*
X025257Y019392D01*
X025204Y019398D01*
X025152Y019408D01*
X025101Y019422D01*
X025051Y019439D01*
X025002Y019460D01*
X024955Y019485D01*
X024910Y019513D01*
X024867Y019545D01*
X024827Y019580D01*
X024790Y019617D01*
X024755Y019657D01*
X024723Y019700D01*
X024695Y019745D01*
X024670Y019792D01*
X024649Y019841D01*
X024632Y019891D01*
X024618Y019942D01*
X024608Y019994D01*
X024602Y020047D01*
X024600Y020100D01*
X026245Y019320D02*
X026301Y019320D01*
X026528Y019093D01*
X026585Y019093D01*
X026585Y018961D02*
X026585Y018734D01*
X026585Y018848D02*
X026245Y018848D01*
X026358Y018734D01*
X026358Y018602D02*
X026585Y018602D01*
X026415Y018602D02*
X026415Y018375D01*
X026358Y018375D02*
X026245Y018488D01*
X026358Y018602D01*
X026358Y018375D02*
X026585Y018375D01*
X026245Y019093D02*
X026245Y019320D01*
X019306Y017270D02*
X019005Y017270D01*
X019231Y017495D01*
X019231Y017045D01*
X018845Y017120D02*
X018845Y017420D01*
X018770Y017495D01*
X018545Y017495D01*
X018545Y017045D01*
X018770Y017045D01*
X018845Y017120D01*
X018695Y015745D02*
X018695Y015295D01*
X018545Y015295D02*
X018845Y015295D01*
X019005Y015295D02*
X019005Y015745D01*
X019306Y015295D01*
X019306Y015745D01*
X019466Y015520D02*
X019766Y015520D01*
X019926Y015370D02*
X020226Y015670D01*
X020226Y015370D01*
X020151Y015295D01*
X020001Y015295D01*
X019926Y015370D01*
X019926Y015670D01*
X020001Y015745D01*
X020151Y015745D01*
X020226Y015670D01*
X020387Y015670D02*
X020462Y015745D01*
X020612Y015745D01*
X020687Y015670D01*
X020387Y015370D01*
X020462Y015295D01*
X020612Y015295D01*
X020687Y015370D01*
X020687Y015670D01*
X020847Y015520D02*
X021072Y015745D01*
X021072Y015295D01*
X021147Y015520D02*
X020847Y015520D01*
X020387Y015370D02*
X020387Y015670D01*
X019691Y015745D02*
X019466Y015520D01*
X019691Y015295D02*
X019691Y015745D01*
X018695Y015745D02*
X018545Y015595D01*
X013215Y015610D02*
X013215Y015535D01*
X013140Y015460D01*
X013215Y015385D01*
X013215Y015310D01*
X013140Y015235D01*
X012990Y015235D01*
X012915Y015310D01*
X012754Y015310D02*
X012754Y015610D01*
X012679Y015685D01*
X012454Y015685D01*
X012454Y015235D01*
X012679Y015235D01*
X012754Y015310D01*
X012915Y015610D02*
X012990Y015685D01*
X013140Y015685D01*
X013215Y015610D01*
X013140Y015460D02*
X013065Y015460D01*
X013140Y016985D02*
X013140Y017435D01*
X012915Y017210D01*
X013215Y017210D01*
X012754Y017060D02*
X012679Y016985D01*
X012529Y016985D01*
X012454Y017060D01*
X012754Y017360D01*
X012754Y017060D01*
X012454Y017060D02*
X012454Y017360D01*
X012529Y017435D01*
X012679Y017435D01*
X012754Y017360D01*
X012294Y017360D02*
X011994Y017060D01*
X012069Y016985D01*
X012219Y016985D01*
X012294Y017060D01*
X012294Y017360D01*
X012219Y017435D01*
X012069Y017435D01*
X011994Y017360D01*
X011994Y017060D01*
X011834Y017210D02*
X011533Y017210D01*
X011759Y017435D01*
X011759Y016985D01*
X011373Y016985D02*
X011373Y017435D01*
X011073Y017435D02*
X011073Y016985D01*
X010913Y016985D02*
X010613Y016985D01*
X010763Y016985D02*
X010763Y017435D01*
X010613Y017285D01*
X011073Y017435D02*
X011373Y016985D01*
X006157Y015720D02*
X005857Y015720D01*
X006082Y015945D01*
X006082Y015495D01*
X005697Y015570D02*
X005622Y015495D01*
X005472Y015495D01*
X005397Y015570D01*
X005697Y015870D01*
X005697Y015570D01*
X005697Y015870D02*
X005622Y015945D01*
X005472Y015945D01*
X005397Y015870D01*
X005397Y015570D01*
X005236Y015570D02*
X005161Y015495D01*
X005011Y015495D01*
X004936Y015570D01*
X005236Y015870D01*
X005236Y015570D01*
X004936Y015570D02*
X004936Y015870D01*
X005011Y015945D01*
X005161Y015945D01*
X005236Y015870D01*
X004776Y015720D02*
X004476Y015720D01*
X004701Y015945D01*
X004701Y015495D01*
X004316Y015495D02*
X004316Y015945D01*
X004015Y015945D02*
X004316Y015495D01*
X004015Y015495D02*
X004015Y015945D01*
X003705Y015945D02*
X003555Y015795D01*
X003705Y015945D02*
X003705Y015495D01*
X003555Y015495D02*
X003855Y015495D01*
X003780Y017245D02*
X003855Y017320D01*
X003855Y017620D01*
X003780Y017695D01*
X003555Y017695D01*
X003555Y017245D01*
X003780Y017245D01*
X004015Y017245D02*
X004316Y017545D01*
X004316Y017620D01*
X004241Y017695D01*
X004090Y017695D01*
X004015Y017620D01*
X004015Y017245D02*
X004316Y017245D01*
X030985Y011658D02*
X031435Y011658D01*
X030985Y011358D01*
X031435Y011358D01*
X031435Y011198D02*
X031135Y011198D01*
X030985Y011048D01*
X031135Y010898D01*
X031435Y010898D01*
X031360Y010738D02*
X031435Y010663D01*
X031435Y010512D01*
X031360Y010437D01*
X031360Y010277D02*
X031060Y010277D01*
X031360Y009977D01*
X031435Y010052D01*
X031435Y010202D01*
X031360Y010277D01*
X031360Y009977D02*
X031060Y009977D01*
X030985Y010052D01*
X030985Y010202D01*
X031060Y010277D01*
X031060Y010437D02*
X030985Y010512D01*
X030985Y010663D01*
X031060Y010738D01*
X031135Y010738D01*
X031210Y010663D01*
X031285Y010738D01*
X031360Y010738D01*
X031210Y010663D02*
X031210Y010587D01*
X031210Y010898D02*
X031210Y011198D01*
X031060Y009817D02*
X031360Y009817D01*
X031435Y009742D01*
X031435Y009592D01*
X031360Y009517D01*
X031060Y009817D01*
X030985Y009742D01*
X030985Y009592D01*
X031060Y009517D01*
X031360Y009517D01*
X031435Y009356D02*
X031435Y009056D01*
X031135Y009356D01*
X031060Y009356D01*
X030985Y009281D01*
X030985Y009131D01*
X031060Y009056D01*
X030985Y008896D02*
X031435Y008896D01*
X030985Y008596D01*
X031435Y008596D01*
X031435Y008436D02*
X031435Y008135D01*
X030985Y008135D01*
X030985Y007975D02*
X031360Y007975D01*
X031435Y007900D01*
X031435Y007750D01*
X031360Y007675D01*
X030985Y007675D01*
X031157Y006425D02*
X031307Y006425D01*
X031232Y006425D02*
X031232Y005975D01*
X031157Y005975D02*
X031307Y005975D01*
X031464Y006050D02*
X031539Y005975D01*
X031689Y005975D01*
X031764Y006050D01*
X031925Y005975D02*
X032225Y005975D01*
X032075Y005975D02*
X032075Y006425D01*
X031925Y006275D01*
X031764Y006350D02*
X031689Y006425D01*
X031539Y006425D01*
X031464Y006350D01*
X031464Y006050D01*
X021865Y002835D02*
X021565Y002835D01*
X021715Y002835D02*
X021715Y003285D01*
X021565Y003135D01*
X019865Y003135D02*
X019565Y002835D01*
X019865Y002835D01*
X019865Y003135D02*
X019865Y003210D01*
X019790Y003285D01*
X019640Y003285D01*
X019565Y003210D01*
X017865Y003210D02*
X017865Y003135D01*
X017790Y003060D01*
X017865Y002985D01*
X017865Y002910D01*
X017790Y002835D01*
X017640Y002835D01*
X017565Y002910D01*
X017715Y003060D02*
X017790Y003060D01*
X017865Y003210D02*
X017790Y003285D01*
X017640Y003285D01*
X017565Y003210D01*
X015775Y002785D02*
X015475Y002785D01*
X015625Y002785D02*
X015625Y003235D01*
X015475Y003085D01*
X013775Y003085D02*
X013475Y002785D01*
X013775Y002785D01*
X013775Y003085D02*
X013775Y003160D01*
X013700Y003235D01*
X013550Y003235D01*
X013475Y003160D01*
X011775Y003160D02*
X011775Y003085D01*
X011700Y003010D01*
X011775Y002935D01*
X011775Y002860D01*
X011700Y002785D01*
X011550Y002785D01*
X011475Y002860D01*
X011625Y003010D02*
X011700Y003010D01*
X011775Y003160D02*
X011700Y003235D01*
X011550Y003235D01*
X011475Y003160D01*
X007155Y002755D02*
X006855Y002755D01*
X007005Y002755D02*
X007005Y003205D01*
X006855Y003055D01*
X005155Y003055D02*
X005155Y003130D01*
X005080Y003205D01*
X004930Y003205D01*
X004855Y003130D01*
X005155Y003055D02*
X004855Y002755D01*
X005155Y002755D01*
X003155Y002830D02*
X003080Y002755D01*
X002930Y002755D01*
X002855Y002830D01*
X003005Y002980D02*
X003080Y002980D01*
X003155Y002905D01*
X003155Y002830D01*
X003080Y002980D02*
X003155Y003055D01*
X003155Y003130D01*
X003080Y003205D01*
X002930Y003205D01*
X002855Y003130D01*
X050165Y010039D02*
X050240Y009964D01*
X050315Y009964D01*
X050390Y010039D01*
X050390Y010189D01*
X050465Y010264D01*
X050540Y010264D01*
X050615Y010189D01*
X050615Y010039D01*
X050540Y009964D01*
X050165Y010039D02*
X050165Y010189D01*
X050240Y010264D01*
X050165Y010424D02*
X050465Y010424D01*
X050615Y010574D01*
X050465Y010724D01*
X050165Y010724D01*
X050315Y010885D02*
X050165Y011035D01*
X050615Y011035D01*
X050615Y010885D02*
X050615Y011185D01*
D13*
X044458Y012330D02*
X044151Y012330D01*
X044304Y012330D02*
X044304Y011870D01*
X043997Y011947D02*
X043921Y011870D01*
X043767Y011870D01*
X043690Y011947D01*
X043537Y011870D02*
X043383Y012023D01*
X043460Y012023D02*
X043230Y012023D01*
X043230Y011870D02*
X043230Y012330D01*
X043460Y012330D01*
X043537Y012254D01*
X043537Y012100D01*
X043460Y012023D01*
X043690Y012177D02*
X043767Y012100D01*
X043921Y012100D01*
X043997Y012023D01*
X043997Y011947D01*
X043690Y012177D02*
X043690Y012254D01*
X043767Y012330D01*
X043921Y012330D01*
X043997Y012254D01*
X043921Y011330D02*
X043767Y011330D01*
X043690Y011254D01*
X043690Y010947D01*
X043997Y011254D01*
X043997Y010947D01*
X043921Y010870D01*
X043767Y010870D01*
X043690Y010947D01*
X043537Y010870D02*
X043537Y011177D01*
X043383Y011330D01*
X043230Y011177D01*
X043230Y010870D01*
X043230Y011100D02*
X043537Y011100D01*
X043921Y011330D02*
X043997Y011254D01*
X043921Y010330D02*
X043767Y010330D01*
X043690Y010254D01*
X043690Y009947D01*
X043997Y010254D01*
X043997Y009947D01*
X043921Y009870D01*
X043767Y009870D01*
X043690Y009947D01*
X043537Y009947D02*
X043537Y010254D01*
X043460Y010330D01*
X043230Y010330D01*
X043230Y009870D01*
X043460Y009870D01*
X043537Y009947D01*
X043921Y010330D02*
X043997Y010254D01*
X043997Y009330D02*
X043690Y009330D01*
X043690Y009100D01*
X043844Y009177D01*
X043921Y009177D01*
X043997Y009100D01*
X043997Y008947D01*
X043921Y008870D01*
X043767Y008870D01*
X043690Y008947D01*
X043537Y008947D02*
X043537Y009254D01*
X043460Y009330D01*
X043230Y009330D01*
X043230Y008870D01*
X043460Y008870D01*
X043537Y008947D01*
X043460Y008330D02*
X043230Y008330D01*
X043230Y007870D01*
X043460Y007870D01*
X043537Y007947D01*
X043537Y008254D01*
X043460Y008330D01*
X043690Y008100D02*
X043921Y008100D01*
X043997Y008023D01*
X043997Y007947D01*
X043921Y007870D01*
X043767Y007870D01*
X043690Y007947D01*
X043690Y008100D01*
X043844Y008254D01*
X043997Y008330D01*
X043997Y007330D02*
X043690Y007330D01*
X043537Y007254D02*
X043460Y007330D01*
X043230Y007330D01*
X043230Y006870D01*
X043460Y006870D01*
X043537Y006947D01*
X043537Y007254D01*
X043690Y006947D02*
X043690Y006870D01*
X043690Y006947D02*
X043997Y007254D01*
X043997Y007330D01*
X043921Y006330D02*
X043767Y006330D01*
X043690Y006254D01*
X043690Y006177D01*
X043767Y006100D01*
X043921Y006100D01*
X043997Y006023D01*
X043997Y005947D01*
X043921Y005870D01*
X043767Y005870D01*
X043690Y005947D01*
X043690Y006023D01*
X043767Y006100D01*
X043921Y006100D02*
X043997Y006177D01*
X043997Y006254D01*
X043921Y006330D01*
X043537Y006254D02*
X043460Y006330D01*
X043230Y006330D01*
X043230Y005870D01*
X043460Y005870D01*
X043537Y005947D01*
X043537Y006254D01*
X043460Y005330D02*
X043537Y005254D01*
X043537Y005177D01*
X043460Y005100D01*
X043537Y005023D01*
X043537Y004947D01*
X043460Y004870D01*
X043307Y004870D01*
X043230Y004947D01*
X043383Y005100D02*
X043460Y005100D01*
X043460Y005330D02*
X043307Y005330D01*
X043230Y005254D01*
X043690Y005330D02*
X043690Y005023D01*
X043844Y004870D01*
X043997Y005023D01*
X043997Y005330D01*
X044151Y005254D02*
X044228Y005330D01*
X044381Y005330D01*
X044458Y005254D01*
X044458Y005177D01*
X044381Y005100D01*
X044458Y005023D01*
X044458Y004947D01*
X044381Y004870D01*
X044228Y004870D01*
X044151Y004947D01*
X044304Y005100D02*
X044381Y005100D01*
X038458Y005947D02*
X038458Y006254D01*
X038381Y006330D01*
X038151Y006330D01*
X038151Y005870D01*
X038381Y005870D01*
X038458Y005947D01*
X037997Y005870D02*
X037997Y006330D01*
X037690Y006330D02*
X037997Y005870D01*
X037690Y005870D02*
X037690Y006330D01*
X037537Y006254D02*
X037460Y006330D01*
X037307Y006330D01*
X037230Y006254D01*
X037230Y005947D01*
X037307Y005870D01*
X037460Y005870D01*
X037537Y005947D01*
X037537Y006100D01*
X037383Y006100D01*
X037460Y006870D02*
X037537Y006947D01*
X037537Y007254D01*
X037460Y007330D01*
X037230Y007330D01*
X037230Y006870D01*
X037460Y006870D01*
X037690Y007100D02*
X037997Y007100D01*
X037921Y006870D02*
X037921Y007330D01*
X037690Y007100D01*
X037767Y007870D02*
X037690Y007947D01*
X037767Y007870D02*
X037921Y007870D01*
X037997Y007947D01*
X037997Y008023D01*
X037921Y008100D01*
X037844Y008100D01*
X037921Y008100D02*
X037997Y008177D01*
X037997Y008254D01*
X037921Y008330D01*
X037767Y008330D01*
X037690Y008254D01*
X037537Y008254D02*
X037460Y008330D01*
X037230Y008330D01*
X037230Y007870D01*
X037460Y007870D01*
X037537Y007947D01*
X037537Y008254D01*
X037460Y008870D02*
X037537Y008947D01*
X037537Y009254D01*
X037460Y009330D01*
X037230Y009330D01*
X037230Y008870D01*
X037460Y008870D01*
X037690Y008870D02*
X037997Y009177D01*
X037997Y009254D01*
X037921Y009330D01*
X037767Y009330D01*
X037690Y009254D01*
X037690Y008870D02*
X037997Y008870D01*
X037997Y009870D02*
X037690Y009870D01*
X037844Y009870D02*
X037844Y010330D01*
X037690Y010177D01*
X037537Y010254D02*
X037460Y010330D01*
X037230Y010330D01*
X037230Y009870D01*
X037460Y009870D01*
X037537Y009947D01*
X037537Y010254D01*
X037537Y010870D02*
X037383Y011023D01*
X037460Y011023D02*
X037230Y011023D01*
X037230Y010870D02*
X037230Y011330D01*
X037460Y011330D01*
X037537Y011254D01*
X037537Y011100D01*
X037460Y011023D01*
X037690Y010870D02*
X037997Y011330D01*
X037690Y011330D02*
X037997Y010870D01*
X037997Y011870D02*
X037690Y012330D01*
X037537Y012330D02*
X037230Y012330D01*
X037383Y012330D02*
X037383Y011870D01*
X037690Y011870D02*
X037997Y012330D01*
X037997Y005330D02*
X037997Y005023D01*
X037844Y004870D01*
X037690Y005023D01*
X037690Y005330D01*
X037537Y005330D02*
X037230Y005330D01*
X037230Y005100D01*
X037383Y005177D01*
X037460Y005177D01*
X037537Y005100D01*
X037537Y004947D01*
X037460Y004870D01*
X037307Y004870D01*
X037230Y004947D01*
D14*
X036610Y005100D02*
X035810Y005100D01*
X036210Y004700D02*
X036210Y005500D01*
X031210Y010200D02*
X031210Y011000D01*
X030810Y010600D02*
X031610Y010600D01*
X019730Y011130D02*
X018930Y011130D01*
X019330Y010730D02*
X019330Y011530D01*
X012400Y011210D02*
X011600Y011210D01*
X012000Y010810D02*
X012000Y011610D01*
X004740Y011260D02*
X003940Y011260D01*
X004340Y010860D02*
X004340Y011660D01*
X012550Y015960D02*
X012550Y016760D01*
X012150Y016360D02*
X012950Y016360D01*
X018920Y016370D02*
X019720Y016370D01*
X019320Y015970D02*
X019320Y016770D01*
X029310Y020100D02*
X030110Y020100D01*
X029710Y019700D02*
X029710Y020500D01*
X038310Y020600D02*
X039110Y020600D01*
X038710Y020200D02*
X038710Y021000D01*
X045810Y020100D02*
X046610Y020100D01*
X046210Y019700D02*
X046210Y020500D01*
X049480Y014630D02*
X049480Y013830D01*
X049080Y014230D02*
X049880Y014230D01*
X049490Y010220D02*
X049490Y009420D01*
X049090Y009820D02*
X049890Y009820D01*
X047860Y006420D02*
X047860Y005620D01*
X047460Y006020D02*
X048260Y006020D01*
X049500Y005440D02*
X049500Y004640D01*
X049100Y005040D02*
X049900Y005040D01*
X019650Y003810D02*
X018850Y003810D01*
X019250Y003410D02*
X019250Y004210D01*
X013560Y003760D02*
X012760Y003760D01*
X013160Y003360D02*
X013160Y004160D01*
X004940Y003730D02*
X004140Y003730D01*
X004540Y003330D02*
X004540Y004130D01*
X004330Y016170D02*
X004330Y016970D01*
X003930Y016570D02*
X004730Y016570D01*
D15*
X001370Y003180D02*
X001370Y001280D01*
X001570Y001280D01*
X007510Y001280D01*
X007510Y002480D01*
X001570Y002480D01*
X001570Y003080D01*
X001570Y003480D01*
X001920Y003480D01*
X001920Y003630D02*
X001770Y003630D01*
X001770Y005430D01*
X003370Y005430D01*
X003370Y003630D01*
X003210Y003630D01*
X003220Y003480D02*
X003880Y003480D01*
X003890Y003630D02*
X003740Y003630D01*
X003740Y005430D01*
X003740Y006180D01*
X003370Y006180D01*
X001770Y006180D01*
X001770Y005430D01*
X001570Y005330D02*
X001570Y003480D01*
X001370Y003180D02*
X001570Y003080D01*
X001570Y002480D02*
X001570Y001280D01*
X001770Y001380D02*
X001770Y002380D01*
X003370Y002380D01*
X003370Y001380D01*
X001770Y001380D01*
X002010Y001730D02*
X003210Y001980D01*
X003160Y002030D02*
X001960Y001780D01*
X001970Y001740D02*
X001951Y001764D01*
X001935Y001789D01*
X001922Y001817D01*
X001912Y001845D01*
X001905Y001875D01*
X001901Y001905D01*
X001901Y001935D01*
X001905Y001966D01*
X001912Y001995D01*
X001922Y002024D01*
X001935Y002051D01*
X001951Y002077D01*
X001970Y002100D01*
X001992Y002122D01*
X001968Y001738D02*
X002005Y001698D01*
X002045Y001661D01*
X002087Y001626D01*
X002131Y001595D01*
X002177Y001566D01*
X002225Y001541D01*
X002275Y001519D01*
X002326Y001500D01*
X002378Y001484D01*
X002432Y001473D01*
X002485Y001465D01*
X002540Y001460D01*
X002594Y001459D01*
X002648Y001462D01*
X002703Y001468D01*
X002756Y001478D01*
X002809Y001492D01*
X002860Y001509D01*
X002911Y001530D01*
X002960Y001553D01*
X003007Y001581D01*
X003052Y001611D01*
X003095Y001644D01*
X003136Y001680D01*
X003175Y001719D01*
X003210Y001760D01*
X003190Y001740D02*
X003209Y001764D01*
X003225Y001789D01*
X003238Y001817D01*
X003247Y001846D01*
X003252Y001875D01*
X003253Y001906D01*
X003250Y001936D01*
X003244Y001965D01*
X003233Y001994D01*
X003219Y002021D01*
X003202Y002045D01*
X003182Y002068D01*
X003159Y002087D01*
X003133Y002104D01*
X003740Y002380D02*
X005340Y002380D01*
X005340Y001380D01*
X003740Y001380D01*
X003740Y002380D01*
X003962Y002122D02*
X003940Y002100D01*
X003921Y002077D01*
X003905Y002051D01*
X003892Y002024D01*
X003882Y001995D01*
X003875Y001966D01*
X003871Y001935D01*
X003871Y001905D01*
X003875Y001875D01*
X003882Y001845D01*
X003892Y001817D01*
X003905Y001789D01*
X003921Y001764D01*
X003940Y001740D01*
X003930Y001780D02*
X005130Y002030D01*
X005180Y001980D02*
X003980Y001730D01*
X003944Y002108D02*
X003993Y002143D01*
X004045Y002174D01*
X004098Y002202D01*
X004153Y002227D01*
X004209Y002248D01*
X004267Y002266D01*
X004325Y002280D01*
X004385Y002290D01*
X004445Y002297D01*
X004505Y002300D01*
X004565Y002299D01*
X004625Y002294D01*
X004685Y002286D01*
X004744Y002274D01*
X004802Y002258D01*
X004859Y002238D01*
X004915Y002215D01*
X004969Y002189D01*
X005021Y002159D01*
X005072Y002126D01*
X005120Y002090D01*
X005103Y002104D02*
X005129Y002087D01*
X005152Y002068D01*
X005172Y002045D01*
X005189Y002021D01*
X005203Y001994D01*
X005214Y001965D01*
X005220Y001936D01*
X005223Y001906D01*
X005222Y001875D01*
X005217Y001846D01*
X005208Y001817D01*
X005195Y001789D01*
X005179Y001764D01*
X005160Y001740D01*
X005710Y001380D02*
X007310Y001380D01*
X007310Y002380D01*
X005710Y002380D01*
X005710Y001380D01*
X005940Y001730D02*
X007140Y001980D01*
X007090Y002030D02*
X005890Y001780D01*
X005900Y001740D02*
X005881Y001764D01*
X005865Y001789D01*
X005852Y001817D01*
X005842Y001845D01*
X005835Y001875D01*
X005831Y001905D01*
X005831Y001935D01*
X005835Y001966D01*
X005842Y001995D01*
X005852Y002024D01*
X005865Y002051D01*
X005881Y002077D01*
X005900Y002100D01*
X005922Y002122D01*
X005898Y001738D02*
X005935Y001698D01*
X005975Y001661D01*
X006017Y001626D01*
X006061Y001595D01*
X006107Y001566D01*
X006155Y001541D01*
X006205Y001518D01*
X006256Y001500D01*
X006308Y001484D01*
X006362Y001473D01*
X006415Y001465D01*
X006470Y001460D01*
X006524Y001459D01*
X006579Y001462D01*
X006633Y001468D01*
X006686Y001478D01*
X006739Y001492D01*
X006790Y001509D01*
X006841Y001530D01*
X006890Y001553D01*
X006937Y001581D01*
X006982Y001611D01*
X007026Y001644D01*
X007066Y001680D01*
X007105Y001719D01*
X007140Y001760D01*
X007120Y001740D02*
X007139Y001764D01*
X007155Y001789D01*
X007168Y001817D01*
X007177Y001846D01*
X007182Y001875D01*
X007183Y001906D01*
X007180Y001936D01*
X007174Y001965D01*
X007163Y001994D01*
X007149Y002021D01*
X007132Y002045D01*
X007112Y002068D01*
X007089Y002087D01*
X007063Y002104D01*
X007510Y002480D02*
X007510Y003480D01*
X007160Y003480D01*
X007160Y003630D02*
X007310Y003630D01*
X007310Y005430D01*
X007310Y006180D01*
X005710Y006180D01*
X005340Y006180D01*
X003740Y006180D01*
X003370Y006180D02*
X003370Y005430D01*
X003220Y005180D02*
X003220Y003930D01*
X003890Y003930D02*
X003890Y005180D01*
X005190Y005180D01*
X005190Y003930D01*
X005860Y003930D02*
X005860Y005180D01*
X007160Y005180D01*
X007160Y003930D01*
X007510Y003480D02*
X007510Y006180D01*
X007310Y006180D01*
X007310Y005430D02*
X005710Y005430D01*
X005710Y003630D01*
X005860Y003630D01*
X005860Y003480D02*
X005190Y003480D01*
X005190Y003630D02*
X005340Y003630D01*
X005340Y005430D01*
X003740Y005430D01*
X003220Y005180D02*
X001920Y005180D01*
X001920Y003930D01*
X001370Y005230D02*
X001370Y005880D01*
X001570Y005780D01*
X001570Y005330D01*
X001370Y005230D01*
X001570Y005780D02*
X001570Y006180D01*
X001770Y006180D01*
X001090Y007210D02*
X007590Y007210D01*
X007590Y015310D01*
X001090Y015310D01*
X001090Y007210D01*
X002590Y008760D02*
X003590Y008760D01*
X004340Y009510D02*
X005340Y008510D01*
X005090Y008760D02*
X006090Y008760D01*
X004340Y009510D02*
X004340Y010510D01*
X004840Y012010D02*
X003840Y012510D01*
X003840Y012260D02*
X002090Y012260D01*
X002090Y013010D01*
X004840Y012260D02*
X006590Y012260D01*
X006590Y013010D01*
X009750Y012960D02*
X009750Y012210D01*
X011500Y012210D01*
X011500Y012460D02*
X012500Y011960D01*
X012500Y012210D02*
X014250Y012210D01*
X014250Y012960D01*
X017080Y012880D02*
X017080Y012130D01*
X018830Y012130D01*
X018830Y012380D02*
X019830Y011880D01*
X019830Y012130D02*
X021580Y012130D01*
X021580Y012880D01*
X022580Y015180D02*
X016080Y015180D01*
X016080Y007080D01*
X022580Y007080D01*
X022580Y015180D01*
X020120Y015870D02*
X020120Y016870D01*
X018520Y016870D01*
X018520Y015870D01*
X020120Y015870D01*
X019720Y016120D02*
X019320Y016370D01*
X019320Y016120D01*
X019320Y016370D02*
X019320Y016620D01*
X019320Y016370D02*
X019720Y016620D01*
X019720Y016120D01*
X019920Y016370D02*
X019320Y016370D01*
X019070Y016370D01*
X015250Y015260D02*
X008750Y015260D01*
X008750Y007160D01*
X015250Y007160D01*
X015250Y015260D01*
X013350Y015860D02*
X013350Y016860D01*
X011750Y016860D01*
X011750Y015860D01*
X013350Y015860D01*
X012800Y016360D02*
X012550Y016360D01*
X012550Y016610D01*
X012550Y016360D02*
X011950Y016360D01*
X012150Y016110D02*
X012550Y016360D01*
X012550Y016110D01*
X012550Y016360D02*
X012150Y016610D01*
X012150Y016110D01*
X005130Y016070D02*
X005130Y017070D01*
X003530Y017070D01*
X003530Y016070D01*
X005130Y016070D01*
X004730Y016320D02*
X004330Y016570D01*
X004330Y016320D01*
X004330Y016570D02*
X004330Y016820D01*
X004330Y016570D02*
X004730Y016820D01*
X004730Y016320D01*
X004930Y016570D02*
X004330Y016570D01*
X004080Y016570D01*
X012000Y010460D02*
X012000Y009460D01*
X013000Y008460D01*
X012750Y008710D02*
X013750Y008710D01*
X011250Y008710D02*
X010250Y008710D01*
X010190Y006210D02*
X010390Y006210D01*
X011990Y006210D01*
X011990Y005460D01*
X011990Y003660D01*
X011830Y003660D01*
X011840Y003510D02*
X012500Y003510D01*
X012510Y003660D02*
X012360Y003660D01*
X012360Y005460D01*
X012360Y006210D01*
X011990Y006210D01*
X012360Y006210D02*
X013960Y006210D01*
X014330Y006210D01*
X015930Y006210D01*
X015930Y005460D01*
X014330Y005460D01*
X014330Y003660D01*
X014480Y003660D01*
X014480Y003510D02*
X013810Y003510D01*
X013810Y003660D02*
X013960Y003660D01*
X013960Y005460D01*
X012360Y005460D01*
X012510Y005210D02*
X013810Y005210D01*
X013810Y003960D01*
X014480Y003960D02*
X014480Y005210D01*
X015780Y005210D01*
X015780Y003960D01*
X015780Y003660D02*
X015930Y003660D01*
X015930Y005460D01*
X016080Y005310D02*
X016080Y005960D01*
X016280Y005860D01*
X016280Y005410D01*
X016280Y003560D01*
X016630Y003560D01*
X016630Y003710D02*
X016480Y003710D01*
X016480Y005510D01*
X018080Y005510D01*
X018080Y003710D01*
X017920Y003710D01*
X017930Y003560D02*
X018590Y003560D01*
X018600Y003710D02*
X018450Y003710D01*
X018450Y005510D01*
X018450Y006260D01*
X018080Y006260D01*
X016480Y006260D01*
X016480Y005510D01*
X016280Y005410D02*
X016080Y005310D01*
X016630Y005260D02*
X016630Y004010D01*
X016280Y003560D02*
X016280Y003160D01*
X016280Y002560D01*
X022220Y002560D01*
X022220Y001360D01*
X016280Y001360D01*
X016080Y001360D01*
X016080Y003260D01*
X016280Y003160D01*
X016130Y003510D02*
X015780Y003510D01*
X016130Y003510D02*
X016130Y002510D01*
X016130Y001310D01*
X010190Y001310D01*
X009990Y001310D01*
X009990Y003210D01*
X010190Y003110D01*
X010190Y002510D01*
X016130Y002510D01*
X016280Y002560D02*
X016280Y001360D01*
X016480Y001460D02*
X016480Y002460D01*
X018080Y002460D01*
X018080Y001460D01*
X016480Y001460D01*
X016720Y001810D02*
X017920Y002060D01*
X017870Y002110D02*
X016670Y001860D01*
X016680Y001820D02*
X016661Y001844D01*
X016645Y001869D01*
X016632Y001897D01*
X016622Y001925D01*
X016615Y001955D01*
X016611Y001985D01*
X016611Y002015D01*
X016615Y002046D01*
X016622Y002075D01*
X016632Y002104D01*
X016645Y002131D01*
X016661Y002157D01*
X016680Y002180D01*
X016702Y002202D01*
X016678Y001818D02*
X016715Y001778D01*
X016755Y001741D01*
X016797Y001706D01*
X016841Y001675D01*
X016887Y001646D01*
X016935Y001621D01*
X016985Y001599D01*
X017036Y001580D01*
X017088Y001564D01*
X017142Y001553D01*
X017195Y001545D01*
X017250Y001540D01*
X017304Y001539D01*
X017358Y001542D01*
X017413Y001548D01*
X017466Y001558D01*
X017519Y001572D01*
X017570Y001589D01*
X017621Y001610D01*
X017670Y001633D01*
X017717Y001661D01*
X017762Y001691D01*
X017805Y001724D01*
X017846Y001760D01*
X017885Y001799D01*
X017920Y001840D01*
X017900Y001820D02*
X017919Y001844D01*
X017935Y001869D01*
X017948Y001897D01*
X017957Y001926D01*
X017962Y001955D01*
X017963Y001986D01*
X017960Y002016D01*
X017954Y002045D01*
X017943Y002074D01*
X017929Y002101D01*
X017912Y002125D01*
X017892Y002148D01*
X017869Y002167D01*
X017843Y002184D01*
X018450Y002460D02*
X020050Y002460D01*
X020050Y001460D01*
X018450Y001460D01*
X018450Y002460D01*
X018648Y001818D02*
X018685Y001778D01*
X018725Y001741D01*
X018767Y001706D01*
X018811Y001675D01*
X018857Y001646D01*
X018905Y001621D01*
X018955Y001598D01*
X019006Y001580D01*
X019058Y001564D01*
X019112Y001553D01*
X019165Y001545D01*
X019220Y001540D01*
X019274Y001539D01*
X019329Y001542D01*
X019383Y001548D01*
X019436Y001558D01*
X019489Y001572D01*
X019540Y001589D01*
X019591Y001610D01*
X019640Y001633D01*
X019687Y001661D01*
X019732Y001691D01*
X019776Y001724D01*
X019816Y001760D01*
X019855Y001799D01*
X019890Y001840D01*
X019890Y002060D02*
X018690Y001810D01*
X018640Y001860D02*
X019840Y002110D01*
X019813Y002184D02*
X019839Y002167D01*
X019862Y002148D01*
X019882Y002125D01*
X019899Y002101D01*
X019913Y002074D01*
X019924Y002045D01*
X019930Y002016D01*
X019933Y001986D01*
X019932Y001955D01*
X019927Y001926D01*
X019918Y001897D01*
X019905Y001869D01*
X019889Y001844D01*
X019870Y001820D01*
X020420Y001460D02*
X022020Y001460D01*
X022020Y002460D01*
X020420Y002460D01*
X020420Y001460D01*
X020650Y001810D02*
X021850Y002060D01*
X021800Y002110D02*
X020600Y001860D01*
X020610Y001820D02*
X020591Y001844D01*
X020575Y001869D01*
X020562Y001897D01*
X020552Y001925D01*
X020545Y001955D01*
X020541Y001985D01*
X020541Y002015D01*
X020545Y002046D01*
X020552Y002075D01*
X020562Y002104D01*
X020575Y002131D01*
X020591Y002157D01*
X020610Y002180D01*
X020632Y002202D01*
X020608Y001818D02*
X020645Y001778D01*
X020685Y001741D01*
X020727Y001706D01*
X020771Y001675D01*
X020817Y001646D01*
X020865Y001621D01*
X020915Y001598D01*
X020966Y001580D01*
X021018Y001564D01*
X021072Y001553D01*
X021125Y001545D01*
X021180Y001540D01*
X021234Y001539D01*
X021289Y001542D01*
X021343Y001548D01*
X021396Y001558D01*
X021449Y001572D01*
X021500Y001589D01*
X021551Y001610D01*
X021600Y001633D01*
X021647Y001661D01*
X021692Y001691D01*
X021736Y001724D01*
X021776Y001760D01*
X021815Y001799D01*
X021850Y001840D01*
X021830Y001820D02*
X021849Y001844D01*
X021865Y001869D01*
X021878Y001897D01*
X021887Y001926D01*
X021892Y001955D01*
X021893Y001986D01*
X021890Y002016D01*
X021884Y002045D01*
X021873Y002074D01*
X021859Y002101D01*
X021842Y002125D01*
X021822Y002148D01*
X021799Y002167D01*
X021773Y002184D01*
X022220Y002560D02*
X022220Y003560D01*
X021870Y003560D01*
X021870Y003710D02*
X022020Y003710D01*
X022020Y005510D01*
X022020Y006260D01*
X020420Y006260D01*
X020050Y006260D01*
X018450Y006260D01*
X018080Y006260D02*
X018080Y005510D01*
X017930Y005260D02*
X017930Y004010D01*
X018600Y004010D02*
X018600Y005260D01*
X019900Y005260D01*
X019900Y004010D01*
X019900Y003710D02*
X020050Y003710D01*
X020050Y005510D01*
X018450Y005510D01*
X017930Y005260D02*
X016630Y005260D01*
X016280Y005860D02*
X016280Y006260D01*
X016480Y006260D01*
X016130Y006210D02*
X015930Y006210D01*
X016130Y006210D02*
X016130Y003510D01*
X015930Y002410D02*
X014330Y002410D01*
X014330Y001410D01*
X015930Y001410D01*
X015930Y002410D01*
X015760Y001790D02*
X015725Y001749D01*
X015686Y001710D01*
X015646Y001674D01*
X015602Y001641D01*
X015557Y001611D01*
X015510Y001583D01*
X015461Y001560D01*
X015410Y001539D01*
X015359Y001522D01*
X015306Y001508D01*
X015253Y001498D01*
X015199Y001492D01*
X015144Y001489D01*
X015090Y001490D01*
X015035Y001495D01*
X014982Y001503D01*
X014928Y001514D01*
X014876Y001530D01*
X014825Y001548D01*
X014775Y001571D01*
X014727Y001596D01*
X014681Y001625D01*
X014637Y001656D01*
X014595Y001691D01*
X014555Y001728D01*
X014518Y001768D01*
X014510Y001810D02*
X015710Y002060D01*
X015760Y002010D02*
X014560Y001760D01*
X014520Y001770D02*
X014501Y001794D01*
X014485Y001819D01*
X014472Y001847D01*
X014462Y001875D01*
X014455Y001905D01*
X014451Y001935D01*
X014451Y001965D01*
X014455Y001996D01*
X014462Y002025D01*
X014472Y002054D01*
X014485Y002081D01*
X014501Y002107D01*
X014520Y002130D01*
X014542Y002152D01*
X013960Y002410D02*
X012360Y002410D01*
X012360Y001410D01*
X013960Y001410D01*
X013960Y002410D01*
X013750Y002060D02*
X012550Y001810D01*
X012600Y001760D02*
X013800Y002010D01*
X013723Y002134D02*
X013749Y002117D01*
X013772Y002098D01*
X013792Y002075D01*
X013809Y002051D01*
X013823Y002024D01*
X013834Y001995D01*
X013840Y001966D01*
X013843Y001936D01*
X013842Y001905D01*
X013837Y001876D01*
X013828Y001847D01*
X013815Y001819D01*
X013799Y001794D01*
X013780Y001770D01*
X013740Y002120D02*
X013692Y002156D01*
X013641Y002189D01*
X013589Y002219D01*
X013535Y002245D01*
X013479Y002268D01*
X013422Y002288D01*
X013364Y002304D01*
X013305Y002316D01*
X013245Y002324D01*
X013185Y002329D01*
X013125Y002330D01*
X013065Y002327D01*
X013005Y002320D01*
X012945Y002310D01*
X012887Y002296D01*
X012829Y002278D01*
X012773Y002257D01*
X012718Y002232D01*
X012665Y002204D01*
X012613Y002173D01*
X012564Y002138D01*
X012582Y002152D02*
X012560Y002130D01*
X012541Y002107D01*
X012525Y002081D01*
X012512Y002054D01*
X012502Y002025D01*
X012495Y001996D01*
X012491Y001965D01*
X012491Y001935D01*
X012495Y001905D01*
X012502Y001875D01*
X012512Y001847D01*
X012525Y001819D01*
X012541Y001794D01*
X012560Y001770D01*
X011990Y001410D02*
X010390Y001410D01*
X010390Y002410D01*
X011990Y002410D01*
X011990Y001410D01*
X011770Y002120D02*
X011722Y002156D01*
X011671Y002189D01*
X011619Y002219D01*
X011565Y002245D01*
X011509Y002268D01*
X011452Y002288D01*
X011394Y002304D01*
X011335Y002316D01*
X011275Y002324D01*
X011215Y002329D01*
X011155Y002330D01*
X011095Y002327D01*
X011035Y002320D01*
X010975Y002310D01*
X010917Y002296D01*
X010859Y002278D01*
X010803Y002257D01*
X010748Y002232D01*
X010695Y002204D01*
X010643Y002173D01*
X010594Y002138D01*
X010612Y002152D02*
X010590Y002130D01*
X010571Y002107D01*
X010555Y002081D01*
X010542Y002054D01*
X010532Y002025D01*
X010525Y001996D01*
X010521Y001965D01*
X010521Y001935D01*
X010525Y001905D01*
X010532Y001875D01*
X010542Y001847D01*
X010555Y001819D01*
X010571Y001794D01*
X010590Y001770D01*
X010580Y001810D02*
X011780Y002060D01*
X011830Y002010D02*
X010630Y001760D01*
X010190Y001310D02*
X010190Y002510D01*
X010190Y003110D02*
X010190Y003510D01*
X010540Y003510D01*
X010540Y003660D02*
X010390Y003660D01*
X010390Y005460D01*
X011990Y005460D01*
X011840Y005210D02*
X011840Y003960D01*
X012510Y003960D02*
X012510Y005210D01*
X011840Y005210D02*
X010540Y005210D01*
X010540Y003960D01*
X010190Y003510D02*
X010190Y005360D01*
X010190Y005810D01*
X010190Y006210D01*
X010390Y006210D02*
X010390Y005460D01*
X010190Y005360D02*
X009990Y005260D01*
X009990Y005910D01*
X010190Y005810D01*
X013960Y005460D02*
X013960Y006210D01*
X014330Y006210D02*
X014330Y005460D01*
X019900Y003560D02*
X020570Y003560D01*
X020570Y003710D02*
X020420Y003710D01*
X020420Y005510D01*
X022020Y005510D01*
X021870Y005260D02*
X021870Y004010D01*
X022220Y003560D02*
X022220Y006260D01*
X022020Y006260D01*
X020420Y006260D02*
X020420Y005510D01*
X020570Y005260D02*
X021870Y005260D01*
X020570Y005260D02*
X020570Y004010D01*
X020050Y005510D02*
X020050Y006260D01*
X020330Y008380D02*
X019330Y009380D01*
X019330Y010380D01*
X018580Y008630D02*
X017580Y008630D01*
X020080Y008630D02*
X021080Y008630D01*
X030060Y006600D02*
X030810Y006600D01*
X030812Y006639D01*
X030818Y006678D01*
X030827Y006716D01*
X030840Y006753D01*
X030857Y006789D01*
X030877Y006822D01*
X030901Y006854D01*
X030927Y006883D01*
X030956Y006909D01*
X030988Y006933D01*
X031021Y006953D01*
X031057Y006970D01*
X031094Y006983D01*
X031132Y006992D01*
X031171Y006998D01*
X031210Y007000D01*
X031249Y006998D01*
X031288Y006992D01*
X031326Y006983D01*
X031363Y006970D01*
X031399Y006953D01*
X031432Y006933D01*
X031464Y006909D01*
X031493Y006883D01*
X031519Y006854D01*
X031543Y006822D01*
X031563Y006789D01*
X031580Y006753D01*
X031593Y006716D01*
X031602Y006678D01*
X031608Y006639D01*
X031610Y006600D01*
X032360Y006600D01*
X032360Y014600D01*
X030060Y014600D01*
X030060Y006600D01*
X021790Y002170D02*
X021742Y002206D01*
X021691Y002239D01*
X021639Y002269D01*
X021585Y002295D01*
X021529Y002318D01*
X021472Y002338D01*
X021414Y002354D01*
X021355Y002366D01*
X021295Y002374D01*
X021235Y002379D01*
X021175Y002380D01*
X021115Y002377D01*
X021055Y002370D01*
X020995Y002360D01*
X020937Y002346D01*
X020879Y002328D01*
X020823Y002307D01*
X020768Y002282D01*
X020715Y002254D01*
X020663Y002223D01*
X020614Y002188D01*
X019830Y002170D02*
X019782Y002206D01*
X019731Y002239D01*
X019679Y002269D01*
X019625Y002295D01*
X019569Y002318D01*
X019512Y002338D01*
X019454Y002354D01*
X019395Y002366D01*
X019335Y002374D01*
X019275Y002379D01*
X019215Y002380D01*
X019155Y002377D01*
X019095Y002370D01*
X019035Y002360D01*
X018977Y002346D01*
X018919Y002328D01*
X018863Y002307D01*
X018808Y002282D01*
X018755Y002254D01*
X018703Y002223D01*
X018654Y002188D01*
X018672Y002202D02*
X018650Y002180D01*
X018631Y002157D01*
X018615Y002131D01*
X018602Y002104D01*
X018592Y002075D01*
X018585Y002046D01*
X018581Y002015D01*
X018581Y001985D01*
X018585Y001955D01*
X018592Y001925D01*
X018602Y001897D01*
X018615Y001869D01*
X018631Y001844D01*
X018650Y001820D01*
X017860Y002170D02*
X017812Y002206D01*
X017761Y002239D01*
X017709Y002269D01*
X017655Y002295D01*
X017599Y002318D01*
X017542Y002338D01*
X017484Y002354D01*
X017425Y002366D01*
X017365Y002374D01*
X017305Y002379D01*
X017245Y002380D01*
X017185Y002377D01*
X017125Y002370D01*
X017065Y002360D01*
X017007Y002346D01*
X016949Y002328D01*
X016893Y002307D01*
X016838Y002282D01*
X016785Y002254D01*
X016733Y002223D01*
X016684Y002188D01*
X015683Y002134D02*
X015709Y002117D01*
X015732Y002098D01*
X015752Y002075D01*
X015769Y002051D01*
X015783Y002024D01*
X015794Y001995D01*
X015800Y001966D01*
X015803Y001936D01*
X015802Y001905D01*
X015797Y001876D01*
X015788Y001847D01*
X015775Y001819D01*
X015759Y001794D01*
X015740Y001770D01*
X015700Y002120D02*
X015652Y002156D01*
X015601Y002189D01*
X015549Y002219D01*
X015495Y002245D01*
X015439Y002268D01*
X015382Y002288D01*
X015324Y002304D01*
X015265Y002316D01*
X015205Y002324D01*
X015145Y002329D01*
X015085Y002330D01*
X015025Y002327D01*
X014965Y002320D01*
X014905Y002310D01*
X014847Y002296D01*
X014789Y002278D01*
X014733Y002257D01*
X014678Y002232D01*
X014625Y002204D01*
X014573Y002173D01*
X014524Y002138D01*
X013800Y001790D02*
X013765Y001749D01*
X013726Y001710D01*
X013686Y001674D01*
X013642Y001641D01*
X013597Y001611D01*
X013550Y001583D01*
X013501Y001560D01*
X013450Y001539D01*
X013399Y001522D01*
X013346Y001508D01*
X013293Y001498D01*
X013239Y001492D01*
X013184Y001489D01*
X013130Y001490D01*
X013075Y001495D01*
X013022Y001503D01*
X012968Y001514D01*
X012916Y001530D01*
X012865Y001548D01*
X012815Y001571D01*
X012767Y001596D01*
X012721Y001625D01*
X012677Y001656D01*
X012635Y001691D01*
X012595Y001728D01*
X012558Y001768D01*
X011810Y001770D02*
X011829Y001794D01*
X011845Y001819D01*
X011858Y001847D01*
X011867Y001876D01*
X011872Y001905D01*
X011873Y001936D01*
X011870Y001966D01*
X011864Y001995D01*
X011853Y002024D01*
X011839Y002051D01*
X011822Y002075D01*
X011802Y002098D01*
X011779Y002117D01*
X011753Y002134D01*
X011830Y001790D02*
X011795Y001749D01*
X011756Y001710D01*
X011715Y001674D01*
X011672Y001641D01*
X011627Y001611D01*
X011580Y001583D01*
X011531Y001560D01*
X011480Y001539D01*
X011429Y001522D01*
X011376Y001508D01*
X011323Y001498D01*
X011268Y001492D01*
X011214Y001489D01*
X011160Y001490D01*
X011105Y001495D01*
X011052Y001503D01*
X010998Y001514D01*
X010946Y001530D01*
X010895Y001549D01*
X010845Y001571D01*
X010797Y001596D01*
X010751Y001625D01*
X010707Y001656D01*
X010665Y001691D01*
X010625Y001728D01*
X010588Y001768D01*
X007080Y002090D02*
X007032Y002126D01*
X006981Y002159D01*
X006929Y002189D01*
X006875Y002215D01*
X006819Y002238D01*
X006762Y002258D01*
X006704Y002274D01*
X006645Y002286D01*
X006585Y002294D01*
X006525Y002299D01*
X006465Y002300D01*
X006405Y002297D01*
X006345Y002290D01*
X006285Y002280D01*
X006227Y002266D01*
X006169Y002248D01*
X006113Y002227D01*
X006058Y002202D01*
X006005Y002174D01*
X005953Y002143D01*
X005904Y002108D01*
X005180Y001760D02*
X005145Y001719D01*
X005106Y001680D01*
X005066Y001644D01*
X005022Y001611D01*
X004977Y001581D01*
X004930Y001553D01*
X004881Y001530D01*
X004830Y001509D01*
X004779Y001492D01*
X004726Y001478D01*
X004673Y001468D01*
X004619Y001462D01*
X004564Y001459D01*
X004510Y001460D01*
X004455Y001465D01*
X004402Y001473D01*
X004348Y001484D01*
X004296Y001500D01*
X004245Y001518D01*
X004195Y001541D01*
X004147Y001566D01*
X004101Y001595D01*
X004057Y001626D01*
X004015Y001661D01*
X003975Y001698D01*
X003938Y001738D01*
X003150Y002090D02*
X003102Y002126D01*
X003051Y002159D01*
X002999Y002189D01*
X002945Y002215D01*
X002889Y002238D01*
X002832Y002258D01*
X002774Y002274D01*
X002715Y002286D01*
X002655Y002294D01*
X002595Y002299D01*
X002535Y002300D01*
X002475Y002297D01*
X002415Y002290D01*
X002355Y002280D01*
X002297Y002266D01*
X002239Y002248D01*
X002183Y002227D01*
X002128Y002202D01*
X002075Y002174D01*
X002023Y002143D01*
X001974Y002108D01*
X005340Y005430D02*
X005340Y006180D01*
X005710Y006180D02*
X005710Y005430D01*
X035540Y018150D02*
X035540Y020050D01*
X035740Y019950D01*
X035740Y019350D01*
X041680Y019350D01*
X041680Y018150D01*
X035740Y018150D01*
X035540Y018150D01*
X035740Y018150D02*
X035740Y019350D01*
X035940Y019250D02*
X037540Y019250D01*
X037540Y018250D01*
X035940Y018250D01*
X035940Y019250D01*
X036162Y018992D02*
X036140Y018970D01*
X036121Y018947D01*
X036105Y018921D01*
X036092Y018894D01*
X036082Y018865D01*
X036075Y018836D01*
X036071Y018805D01*
X036071Y018775D01*
X036075Y018745D01*
X036082Y018715D01*
X036092Y018687D01*
X036105Y018659D01*
X036121Y018634D01*
X036140Y018610D01*
X036130Y018650D02*
X037330Y018900D01*
X037380Y018850D02*
X036180Y018600D01*
X036144Y018978D02*
X036193Y019013D01*
X036245Y019044D01*
X036298Y019072D01*
X036353Y019097D01*
X036409Y019118D01*
X036467Y019136D01*
X036525Y019150D01*
X036585Y019160D01*
X036645Y019167D01*
X036705Y019170D01*
X036765Y019169D01*
X036825Y019164D01*
X036885Y019156D01*
X036944Y019144D01*
X037002Y019128D01*
X037059Y019108D01*
X037115Y019085D01*
X037169Y019059D01*
X037221Y019029D01*
X037272Y018996D01*
X037320Y018960D01*
X037303Y018974D02*
X037329Y018957D01*
X037352Y018938D01*
X037372Y018915D01*
X037389Y018891D01*
X037403Y018864D01*
X037414Y018835D01*
X037420Y018806D01*
X037423Y018776D01*
X037422Y018745D01*
X037417Y018716D01*
X037408Y018687D01*
X037395Y018659D01*
X037379Y018634D01*
X037360Y018610D01*
X037910Y018250D02*
X037910Y019250D01*
X039510Y019250D01*
X039510Y018250D01*
X037910Y018250D01*
X038150Y018600D02*
X039350Y018850D01*
X039300Y018900D02*
X038100Y018650D01*
X038110Y018610D02*
X038091Y018634D01*
X038075Y018659D01*
X038062Y018687D01*
X038052Y018715D01*
X038045Y018745D01*
X038041Y018775D01*
X038041Y018805D01*
X038045Y018836D01*
X038052Y018865D01*
X038062Y018894D01*
X038075Y018921D01*
X038091Y018947D01*
X038110Y018970D01*
X038132Y018992D01*
X038108Y018608D02*
X038145Y018568D01*
X038185Y018531D01*
X038227Y018496D01*
X038271Y018465D01*
X038317Y018436D01*
X038365Y018411D01*
X038415Y018388D01*
X038466Y018370D01*
X038518Y018354D01*
X038572Y018343D01*
X038625Y018335D01*
X038680Y018330D01*
X038734Y018329D01*
X038789Y018332D01*
X038843Y018338D01*
X038896Y018348D01*
X038949Y018362D01*
X039000Y018379D01*
X039051Y018400D01*
X039100Y018423D01*
X039147Y018451D01*
X039192Y018481D01*
X039236Y018514D01*
X039276Y018550D01*
X039315Y018589D01*
X039350Y018630D01*
X039330Y018610D02*
X039349Y018634D01*
X039365Y018659D01*
X039378Y018687D01*
X039387Y018716D01*
X039392Y018745D01*
X039393Y018776D01*
X039390Y018806D01*
X039384Y018835D01*
X039373Y018864D01*
X039359Y018891D01*
X039342Y018915D01*
X039322Y018938D01*
X039299Y018957D01*
X039273Y018974D01*
X039880Y019250D02*
X041480Y019250D01*
X041480Y018250D01*
X039880Y018250D01*
X039880Y019250D01*
X040092Y018992D02*
X040070Y018970D01*
X040051Y018947D01*
X040035Y018921D01*
X040022Y018894D01*
X040012Y018865D01*
X040005Y018836D01*
X040001Y018805D01*
X040001Y018775D01*
X040005Y018745D01*
X040012Y018715D01*
X040022Y018687D01*
X040035Y018659D01*
X040051Y018634D01*
X040070Y018610D01*
X040060Y018650D02*
X041260Y018900D01*
X041310Y018850D02*
X040110Y018600D01*
X040074Y018978D02*
X040123Y019013D01*
X040175Y019044D01*
X040228Y019072D01*
X040283Y019097D01*
X040339Y019118D01*
X040397Y019136D01*
X040455Y019150D01*
X040515Y019160D01*
X040575Y019167D01*
X040635Y019170D01*
X040695Y019169D01*
X040755Y019164D01*
X040815Y019156D01*
X040874Y019144D01*
X040932Y019128D01*
X040989Y019108D01*
X041045Y019085D01*
X041099Y019059D01*
X041151Y019029D01*
X041202Y018996D01*
X041250Y018960D01*
X041233Y018974D02*
X041259Y018957D01*
X041282Y018938D01*
X041302Y018915D01*
X041319Y018891D01*
X041333Y018864D01*
X041344Y018835D01*
X041350Y018806D01*
X041353Y018776D01*
X041352Y018745D01*
X041347Y018716D01*
X041338Y018687D01*
X041325Y018659D01*
X041309Y018634D01*
X041290Y018610D01*
X041310Y018630D02*
X041275Y018589D01*
X041236Y018550D01*
X041196Y018514D01*
X041152Y018481D01*
X041107Y018451D01*
X041060Y018423D01*
X041011Y018400D01*
X040960Y018379D01*
X040909Y018362D01*
X040856Y018348D01*
X040803Y018338D01*
X040749Y018332D01*
X040694Y018329D01*
X040640Y018330D01*
X040585Y018335D01*
X040532Y018343D01*
X040478Y018354D01*
X040426Y018370D01*
X040375Y018388D01*
X040325Y018411D01*
X040277Y018436D01*
X040231Y018465D01*
X040187Y018496D01*
X040145Y018531D01*
X040105Y018568D01*
X040068Y018608D01*
X039290Y018960D02*
X039242Y018996D01*
X039191Y019029D01*
X039139Y019059D01*
X039085Y019085D01*
X039029Y019108D01*
X038972Y019128D01*
X038914Y019144D01*
X038855Y019156D01*
X038795Y019164D01*
X038735Y019169D01*
X038675Y019170D01*
X038615Y019167D01*
X038555Y019160D01*
X038495Y019150D01*
X038437Y019136D01*
X038379Y019118D01*
X038323Y019097D01*
X038268Y019072D01*
X038215Y019044D01*
X038163Y019013D01*
X038114Y018978D01*
X037380Y018630D02*
X037345Y018589D01*
X037306Y018550D01*
X037265Y018514D01*
X037222Y018481D01*
X037177Y018451D01*
X037130Y018423D01*
X037081Y018400D01*
X037030Y018379D01*
X036979Y018362D01*
X036926Y018348D01*
X036873Y018338D01*
X036818Y018332D01*
X036764Y018329D01*
X036710Y018330D01*
X036655Y018335D01*
X036602Y018343D01*
X036548Y018354D01*
X036496Y018370D01*
X036445Y018389D01*
X036395Y018411D01*
X036347Y018436D01*
X036301Y018465D01*
X036257Y018496D01*
X036215Y018531D01*
X036175Y018568D01*
X036138Y018608D01*
X035740Y019950D02*
X035740Y020350D01*
X036090Y020350D01*
X036090Y020500D02*
X035940Y020500D01*
X035940Y022300D01*
X037540Y022300D01*
X037540Y020500D01*
X037380Y020500D01*
X037390Y020350D02*
X038050Y020350D01*
X038060Y020500D02*
X037910Y020500D01*
X037910Y022300D01*
X037910Y023050D01*
X037540Y023050D01*
X035940Y023050D01*
X035940Y022300D01*
X035740Y022200D02*
X035740Y020350D01*
X036090Y020800D02*
X036090Y022050D01*
X037390Y022050D01*
X037390Y020800D01*
X038060Y020800D02*
X038060Y022050D01*
X039360Y022050D01*
X039360Y020800D01*
X039360Y020500D02*
X039510Y020500D01*
X039510Y022300D01*
X037910Y022300D01*
X037540Y022300D02*
X037540Y023050D01*
X037910Y023050D02*
X039510Y023050D01*
X039880Y023050D01*
X041480Y023050D01*
X041480Y022300D01*
X039880Y022300D01*
X039880Y020500D01*
X040030Y020500D01*
X040030Y020350D02*
X039360Y020350D01*
X040030Y020800D02*
X040030Y022050D01*
X041330Y022050D01*
X041330Y020800D01*
X041330Y020500D02*
X041480Y020500D01*
X041480Y022300D01*
X041480Y023050D02*
X041680Y023050D01*
X041680Y020350D01*
X041330Y020350D01*
X041680Y020350D02*
X041680Y019350D01*
X039880Y022300D02*
X039880Y023050D01*
X039510Y023050D02*
X039510Y022300D01*
X035940Y023050D02*
X035740Y023050D01*
X035740Y022650D01*
X035740Y022200D01*
X035540Y022100D01*
X035540Y022750D01*
X035740Y022650D01*
X048980Y015980D02*
X049230Y016230D01*
X049730Y016230D01*
X049980Y015980D01*
X049980Y015480D01*
X049730Y015230D01*
X049980Y014980D01*
X049980Y014480D01*
X049730Y014230D01*
X049980Y013980D01*
X049980Y013480D01*
X049730Y013230D01*
X049980Y012980D01*
X049980Y012480D01*
X049730Y012230D01*
X049230Y012230D01*
X048980Y012480D01*
X048980Y012980D01*
X049230Y013230D01*
X048980Y013480D01*
X048980Y013980D01*
X049230Y014230D01*
X048980Y014480D01*
X048980Y014980D01*
X049230Y015230D01*
X048980Y015480D01*
X048980Y015980D01*
X049240Y011320D02*
X048990Y011070D01*
X048990Y010570D01*
X049240Y010320D01*
X048990Y010070D01*
X048990Y009570D01*
X049240Y009320D01*
X048990Y009070D01*
X048990Y008570D01*
X049240Y008320D01*
X049740Y008320D01*
X049990Y008570D01*
X049990Y009070D01*
X049740Y009320D01*
X049990Y009570D01*
X049990Y010070D01*
X049740Y010320D01*
X049990Y010570D01*
X049990Y011070D01*
X049740Y011320D01*
X049240Y011320D01*
X048310Y007170D02*
X048310Y007020D01*
X048260Y006970D01*
X048260Y005070D01*
X048310Y005020D01*
X048310Y004870D01*
X048308Y004853D01*
X048304Y004836D01*
X048297Y004820D01*
X048287Y004806D01*
X048274Y004793D01*
X048260Y004783D01*
X048244Y004776D01*
X048227Y004772D01*
X048210Y004770D01*
X047510Y004770D02*
X047493Y004772D01*
X047476Y004776D01*
X047460Y004783D01*
X047446Y004793D01*
X047433Y004806D01*
X047423Y004820D01*
X047416Y004836D01*
X047412Y004853D01*
X047410Y004870D01*
X047410Y005020D01*
X047460Y005070D01*
X047460Y006970D01*
X047410Y007020D01*
X047410Y007170D01*
X047412Y007187D01*
X047416Y007204D01*
X047423Y007220D01*
X047433Y007234D01*
X047446Y007247D01*
X047460Y007257D01*
X047476Y007264D01*
X047493Y007268D01*
X047510Y007270D01*
X048210Y007270D02*
X048227Y007268D01*
X048244Y007264D01*
X048260Y007257D01*
X048274Y007247D01*
X048287Y007234D01*
X048297Y007220D01*
X048304Y007204D01*
X048308Y007187D01*
X048310Y007170D01*
X049000Y006790D02*
X049000Y006290D01*
X049250Y006040D01*
X049000Y005790D01*
X049000Y005290D01*
X049250Y005040D01*
X049000Y004790D01*
X049000Y004290D01*
X049250Y004040D01*
X049000Y003790D01*
X049000Y003290D01*
X049250Y003040D01*
X049750Y003040D01*
X050000Y003290D01*
X050000Y003790D01*
X049750Y004040D01*
X050000Y004290D01*
X050000Y004790D01*
X049750Y005040D01*
X050000Y005290D01*
X050000Y005790D01*
X049750Y006040D01*
X050000Y006290D01*
X050000Y006790D01*
X049750Y007040D01*
X049250Y007040D01*
X049000Y006790D01*
D16*
X019830Y011130D02*
X019830Y011880D01*
X019830Y012130D01*
X019830Y013130D01*
X018830Y013130D01*
X018830Y012380D01*
X018830Y012130D01*
X018830Y011130D01*
X019830Y011130D01*
X012500Y011210D02*
X012500Y011960D01*
X012500Y012210D01*
X012500Y013210D01*
X011500Y013210D01*
X011500Y012460D01*
X011500Y012210D01*
X011500Y011210D01*
X012500Y011210D01*
X004840Y011260D02*
X004840Y012010D01*
X004840Y012260D01*
X004840Y013260D01*
X003840Y013260D01*
X003840Y012510D01*
X003840Y012260D01*
X003840Y011260D01*
X004840Y011260D01*
D17*
X004374Y015545D02*
X003953Y015545D01*
X004374Y015965D01*
X004374Y016070D01*
X004268Y016176D01*
X004058Y016176D01*
X003953Y016070D01*
X003519Y016176D02*
X003519Y015545D01*
X003309Y015545D02*
X003729Y015545D01*
X003084Y015545D02*
X002664Y015545D01*
X002874Y015545D02*
X002874Y016176D01*
X002664Y015965D01*
X002440Y016176D02*
X002020Y016176D01*
X002020Y015545D01*
X001795Y015545D02*
X001375Y015545D01*
X001375Y015650D01*
X001795Y016070D01*
X001795Y016176D01*
X001375Y016176D01*
X002020Y015860D02*
X002230Y015860D01*
X003309Y015965D02*
X003519Y016176D01*
X009035Y016126D02*
X009455Y016126D01*
X009455Y016020D01*
X009035Y015600D01*
X009035Y015495D01*
X009455Y015495D01*
X009680Y015495D02*
X009680Y016126D01*
X010100Y016126D01*
X010324Y015915D02*
X010534Y016126D01*
X010534Y015495D01*
X010324Y015495D02*
X010744Y015495D01*
X010969Y015495D02*
X011389Y015495D01*
X011179Y015495D02*
X011179Y016126D01*
X010969Y015915D01*
X011613Y016020D02*
X011718Y016126D01*
X011928Y016126D01*
X012034Y016020D01*
X012034Y015915D01*
X011613Y015495D01*
X012034Y015495D01*
X009890Y015810D02*
X009680Y015810D01*
X016365Y016046D02*
X016785Y016046D01*
X016785Y015940D01*
X016365Y015520D01*
X016365Y015415D01*
X016785Y015415D01*
X017010Y015415D02*
X017010Y016046D01*
X017430Y016046D01*
X017654Y015835D02*
X017864Y016046D01*
X017864Y015415D01*
X017654Y015415D02*
X018074Y015415D01*
X018299Y015415D02*
X018719Y015415D01*
X018509Y015415D02*
X018509Y016046D01*
X018299Y015835D01*
X017220Y015730D02*
X017010Y015730D01*
X018943Y015940D02*
X019048Y016046D01*
X019258Y016046D01*
X019364Y015940D01*
X019364Y015835D01*
X018943Y015415D01*
X019364Y015415D01*
X026994Y018740D02*
X026994Y018950D01*
X027100Y019055D01*
X027520Y019055D01*
X027625Y018950D01*
X027625Y018740D01*
X027520Y018635D01*
X027100Y018635D01*
X026994Y018740D01*
X027415Y018845D02*
X027625Y019055D01*
X027625Y019280D02*
X027205Y019700D01*
X027100Y019700D01*
X026994Y019595D01*
X026994Y019385D01*
X027100Y019280D01*
X027625Y019280D02*
X027625Y019700D01*
X028044Y019659D02*
X028044Y020080D01*
X028044Y020304D02*
X028360Y020304D01*
X028255Y020514D01*
X028255Y020619D01*
X028360Y020724D01*
X028570Y020724D01*
X028675Y020619D01*
X028675Y020409D01*
X028570Y020304D01*
X028360Y019869D02*
X028360Y019659D01*
X028360Y019435D02*
X028150Y019435D01*
X028044Y019330D01*
X028044Y019015D01*
X028675Y019015D01*
X028465Y019015D02*
X028465Y019330D01*
X028360Y019435D01*
X028465Y019225D02*
X028675Y019435D01*
X028675Y019659D02*
X028044Y019659D01*
X028044Y020304D02*
X028044Y020724D01*
X028360Y020948D02*
X028360Y021369D01*
X028570Y021593D02*
X028150Y021593D01*
X028044Y021698D01*
X028044Y021908D01*
X028150Y022013D01*
X028570Y021593D01*
X028675Y021698D01*
X028675Y021908D01*
X028570Y022013D01*
X028150Y022013D01*
X028044Y021264D02*
X028360Y020948D01*
X028675Y021264D02*
X028044Y021264D01*
X028044Y018795D02*
X028044Y018585D01*
X028044Y018690D02*
X028675Y018690D01*
X028675Y018585D02*
X028675Y018795D01*
X040436Y017916D02*
X040856Y017285D01*
X041080Y017390D02*
X041186Y017285D01*
X041396Y017285D01*
X041501Y017390D01*
X041501Y017600D01*
X041396Y017705D01*
X041291Y017705D01*
X041080Y017600D01*
X041080Y017916D01*
X041501Y017916D01*
X040856Y017916D02*
X040436Y017285D01*
X047244Y018033D02*
X047244Y018243D01*
X047244Y018138D02*
X047875Y018138D01*
X047875Y018033D02*
X047875Y018243D01*
X047875Y018462D02*
X047244Y018462D01*
X047244Y018778D01*
X047350Y018883D01*
X047560Y018883D01*
X047665Y018778D01*
X047665Y018462D01*
X047665Y018672D02*
X047875Y018883D01*
X047875Y019107D02*
X047244Y019107D01*
X047244Y019527D01*
X047244Y019751D02*
X047560Y019751D01*
X047455Y019962D01*
X047455Y020067D01*
X047560Y020172D01*
X047770Y020172D01*
X047875Y020067D01*
X047875Y019856D01*
X047770Y019751D01*
X047560Y019317D02*
X047560Y019107D01*
X047244Y019751D02*
X047244Y020172D01*
X047560Y020396D02*
X047560Y020816D01*
X047770Y021040D02*
X047350Y021040D01*
X047244Y021146D01*
X047244Y021356D01*
X047350Y021461D01*
X047770Y021040D01*
X047875Y021146D01*
X047875Y021356D01*
X047770Y021461D01*
X047350Y021461D01*
X048294Y021201D02*
X048505Y020990D01*
X048400Y020766D02*
X048820Y020766D01*
X048925Y020661D01*
X048925Y020451D01*
X048820Y020346D01*
X048400Y020346D01*
X048294Y020451D01*
X048294Y020661D01*
X048400Y020766D01*
X048715Y020556D02*
X048925Y020766D01*
X048925Y020990D02*
X048925Y021411D01*
X048925Y021201D02*
X048294Y021201D01*
X047875Y020711D02*
X047244Y020711D01*
X047560Y020396D01*
X017325Y006796D02*
X017010Y006480D01*
X017430Y006480D01*
X017325Y006165D02*
X017325Y006796D01*
X016785Y006796D02*
X016365Y006375D01*
X016470Y006480D02*
X016785Y006165D01*
X016365Y006165D02*
X016365Y006796D01*
X010100Y006770D02*
X010100Y006665D01*
X009995Y006560D01*
X010100Y006455D01*
X010100Y006350D01*
X009995Y006245D01*
X009785Y006245D01*
X009680Y006350D01*
X009455Y006245D02*
X009140Y006560D01*
X009035Y006455D02*
X009455Y006876D01*
X009680Y006770D02*
X009785Y006876D01*
X009995Y006876D01*
X010100Y006770D01*
X009995Y006560D02*
X009890Y006560D01*
X009035Y006876D02*
X009035Y006245D01*
X002440Y006295D02*
X002020Y006295D01*
X002440Y006715D01*
X002440Y006820D01*
X002335Y006926D01*
X002125Y006926D01*
X002020Y006820D01*
X001795Y006926D02*
X001375Y006505D01*
X001480Y006610D02*
X001795Y006295D01*
X001375Y006295D02*
X001375Y006926D01*
X006266Y001046D02*
X006686Y000415D01*
X006910Y000415D02*
X007331Y000835D01*
X007331Y000940D01*
X007226Y001046D01*
X007016Y001046D01*
X006910Y000940D01*
X006686Y001046D02*
X006266Y000415D01*
X006910Y000415D02*
X007331Y000415D01*
X014886Y000445D02*
X015306Y001076D01*
X015530Y000970D02*
X015636Y001076D01*
X015846Y001076D01*
X015951Y000970D01*
X015951Y000865D01*
X015846Y000760D01*
X015951Y000655D01*
X015951Y000550D01*
X015846Y000445D01*
X015636Y000445D01*
X015530Y000550D01*
X015306Y000445D02*
X014886Y001076D01*
X015741Y000760D02*
X015846Y000760D01*
X020976Y000495D02*
X021396Y001126D01*
X021620Y000810D02*
X022041Y000810D01*
X021936Y000495D02*
X021936Y001126D01*
X021620Y000810D01*
X021396Y000495D02*
X020976Y001126D01*
D18*
X026710Y018300D02*
X029960Y018300D01*
X029960Y021900D01*
X026710Y021900D01*
X026710Y018300D01*
X045960Y018300D02*
X049210Y018300D01*
X049210Y021900D01*
X045960Y021900D01*
X045960Y018300D01*
D19*
X044485Y019100D03*
X044485Y020100D03*
X044485Y021100D03*
X031435Y021100D03*
X031435Y020100D03*
X031435Y019100D03*
D20*
X030760Y019100D03*
X030760Y020100D03*
X030760Y021100D03*
X045160Y021100D03*
X045160Y020100D03*
X045160Y019100D03*
D21*
X018770Y016370D03*
X013100Y016360D03*
X003780Y016570D03*
D22*
X003155Y016570D03*
X005505Y016570D03*
X011375Y016360D03*
X013725Y016360D03*
X018145Y016370D03*
X020495Y016370D03*
M02*
