%
M48
M72
T01C0.0310
T02C0.0320
T03C0.0390
T04C0.0400
T05C0.0440
T06C0.0520
T07C0.0710
T08C0.1300
%
T01
X36210Y12100
X36210Y11100
X36210Y10100
X36210Y9100
X36210Y8100
X36210Y7100
X36210Y6100
X36210Y5100
X45210Y5100
X45210Y6100
X45210Y7100
X45210Y8100
X45210Y9100
X45210Y10100
X45210Y11100
X45210Y12100
T02
X29710Y14100
X29710Y13100
X29710Y12100
X29710Y11100
X29710Y10100
X29710Y9100
X29710Y8100
X29710Y7100
X32710Y7100
X32710Y8100
X32710Y9100
X32710Y10100
X32710Y11100
X32710Y12100
X32710Y13100
X32710Y14100
X47860Y7520
X47860Y4520
T03
X15840Y21310
X15740Y16260
T04
X49480Y15730
X49480Y14730
X49480Y13730
X49480Y12730
X49490Y10820
X49490Y9820
X49490Y8820
X49500Y6540
X49500Y5540
X49500Y4540
X49500Y3540
T05
X2330Y16570
X6330Y16570
X10550Y16360
X14550Y16360
X17320Y16370
X21320Y16370
X32210Y20100
X32210Y21100
X32210Y19100
X43710Y19100
X43710Y20100
X43710Y21100
T06
X36740Y20600
X38710Y20600
X40680Y20600
X21690Y13530
X16970Y13530
X14360Y13610
X9640Y13610
X6700Y13660
X1980Y13660
X1980Y8860
X6700Y8860
X9640Y8810
X14360Y8810
X16970Y8730
X21690Y8730
X21220Y3810
X19250Y3810
X17280Y3810
X15130Y3760
X13160Y3760
X11190Y3760
X6510Y3730
X4540Y3730
X2570Y3730
T07
X4340Y14490
X12000Y14440
X19330Y14360
T08
X25310Y20100
X50610Y20100
M30
