G75*
G70*
%OFA0B0*%
%FSLAX24Y24*%
%IPPOS*%
%LPD*%
%AMOC8*
5,1,8,0,0,1.08239X$1,22.5*
%
%ADD10C,0.0000*%
D10*
X000110Y000120D02*
X000100Y025800D01*
X055252Y025880D01*
X055292Y000200D01*
X000110Y000120D01*
X024660Y020100D02*
X024662Y020150D01*
X024668Y020200D01*
X024678Y020250D01*
X024691Y020298D01*
X024708Y020346D01*
X024729Y020392D01*
X024753Y020436D01*
X024781Y020478D01*
X024812Y020518D01*
X024846Y020555D01*
X024883Y020590D01*
X024922Y020621D01*
X024963Y020650D01*
X025007Y020675D01*
X025053Y020697D01*
X025100Y020715D01*
X025148Y020729D01*
X025197Y020740D01*
X025247Y020747D01*
X025297Y020750D01*
X025348Y020749D01*
X025398Y020744D01*
X025448Y020735D01*
X025496Y020723D01*
X025544Y020706D01*
X025590Y020686D01*
X025635Y020663D01*
X025678Y020636D01*
X025718Y020606D01*
X025756Y020573D01*
X025791Y020537D01*
X025824Y020498D01*
X025853Y020457D01*
X025879Y020414D01*
X025902Y020369D01*
X025921Y020322D01*
X025936Y020274D01*
X025948Y020225D01*
X025956Y020175D01*
X025960Y020125D01*
X025960Y020075D01*
X025956Y020025D01*
X025948Y019975D01*
X025936Y019926D01*
X025921Y019878D01*
X025902Y019831D01*
X025879Y019786D01*
X025853Y019743D01*
X025824Y019702D01*
X025791Y019663D01*
X025756Y019627D01*
X025718Y019594D01*
X025678Y019564D01*
X025635Y019537D01*
X025590Y019514D01*
X025544Y019494D01*
X025496Y019477D01*
X025448Y019465D01*
X025398Y019456D01*
X025348Y019451D01*
X025297Y019450D01*
X025247Y019453D01*
X025197Y019460D01*
X025148Y019471D01*
X025100Y019485D01*
X025053Y019503D01*
X025007Y019525D01*
X024963Y019550D01*
X024922Y019579D01*
X024883Y019610D01*
X024846Y019645D01*
X024812Y019682D01*
X024781Y019722D01*
X024753Y019764D01*
X024729Y019808D01*
X024708Y019854D01*
X024691Y019902D01*
X024678Y019950D01*
X024668Y020000D01*
X024662Y020050D01*
X024660Y020100D01*
X049960Y020100D02*
X049962Y020150D01*
X049968Y020200D01*
X049978Y020250D01*
X049991Y020298D01*
X050008Y020346D01*
X050029Y020392D01*
X050053Y020436D01*
X050081Y020478D01*
X050112Y020518D01*
X050146Y020555D01*
X050183Y020590D01*
X050222Y020621D01*
X050263Y020650D01*
X050307Y020675D01*
X050353Y020697D01*
X050400Y020715D01*
X050448Y020729D01*
X050497Y020740D01*
X050547Y020747D01*
X050597Y020750D01*
X050648Y020749D01*
X050698Y020744D01*
X050748Y020735D01*
X050796Y020723D01*
X050844Y020706D01*
X050890Y020686D01*
X050935Y020663D01*
X050978Y020636D01*
X051018Y020606D01*
X051056Y020573D01*
X051091Y020537D01*
X051124Y020498D01*
X051153Y020457D01*
X051179Y020414D01*
X051202Y020369D01*
X051221Y020322D01*
X051236Y020274D01*
X051248Y020225D01*
X051256Y020175D01*
X051260Y020125D01*
X051260Y020075D01*
X051256Y020025D01*
X051248Y019975D01*
X051236Y019926D01*
X051221Y019878D01*
X051202Y019831D01*
X051179Y019786D01*
X051153Y019743D01*
X051124Y019702D01*
X051091Y019663D01*
X051056Y019627D01*
X051018Y019594D01*
X050978Y019564D01*
X050935Y019537D01*
X050890Y019514D01*
X050844Y019494D01*
X050796Y019477D01*
X050748Y019465D01*
X050698Y019456D01*
X050648Y019451D01*
X050597Y019450D01*
X050547Y019453D01*
X050497Y019460D01*
X050448Y019471D01*
X050400Y019485D01*
X050353Y019503D01*
X050307Y019525D01*
X050263Y019550D01*
X050222Y019579D01*
X050183Y019610D01*
X050146Y019645D01*
X050112Y019682D01*
X050081Y019722D01*
X050053Y019764D01*
X050029Y019808D01*
X050008Y019854D01*
X049991Y019902D01*
X049978Y019950D01*
X049968Y020000D01*
X049962Y020050D01*
X049960Y020100D01*
M02*
