G75*
G70*
%OFA0B0*%
%FSLAX24Y24*%
%IPPOS*%
%LPD*%
%AMOC8*
5,1,8,0,0,1.08239X$1,22.5*
%
%ADD10C,0.0120*%
%ADD11C,0.0515*%
%ADD12C,0.0520*%
%ADD13C,0.0780*%
%ADD14C,0.1065*%
%ADD15C,0.0660*%
%ADD16C,0.0600*%
%ADD17C,0.0660*%
%ADD18OC8,0.0520*%
%ADD19C,0.0591*%
D10*
X-000572Y022690D02*
X-000111Y022690D01*
X000119Y022920D01*
X-000802Y023841D01*
X-000802Y022920D01*
X-000572Y022690D01*
X000119Y022920D02*
X000119Y023841D01*
X-000111Y024071D01*
X-000572Y024071D01*
X-000802Y023841D01*
X001270Y024071D02*
X001730Y023841D01*
X002191Y023381D01*
X001500Y023381D01*
X001270Y023150D01*
X001270Y022920D01*
X001500Y022690D01*
X001960Y022690D01*
X002191Y022920D01*
X002191Y023381D01*
X000809Y022920D02*
X000579Y022920D01*
X000579Y022690D01*
X000809Y022690D01*
X000809Y022920D01*
X004032Y022920D02*
X004262Y023150D01*
X004723Y023150D01*
X004953Y023381D01*
X004723Y023611D01*
X004032Y023611D01*
X005413Y023611D02*
X005644Y023611D01*
X006104Y023150D01*
X006104Y022690D02*
X006104Y023611D01*
X006564Y023381D02*
X006564Y023150D01*
X007485Y023150D01*
X007485Y022920D02*
X007485Y023381D01*
X007255Y023611D01*
X006794Y023611D01*
X006564Y023381D01*
X006794Y022690D02*
X007255Y022690D01*
X007485Y022920D01*
X007945Y022690D02*
X008176Y022920D01*
X008176Y023841D01*
X008406Y023611D02*
X007945Y023611D01*
X008866Y023381D02*
X009327Y023381D01*
X009787Y023381D02*
X010017Y023611D01*
X010478Y023611D01*
X010708Y023381D01*
X010708Y022920D01*
X010478Y022690D01*
X010017Y022690D01*
X009787Y022920D01*
X009787Y023381D01*
X009096Y023841D02*
X009096Y022690D01*
X009096Y023841D02*
X008866Y024071D01*
X011168Y023611D02*
X011398Y023611D01*
X011859Y023150D01*
X011859Y022690D02*
X011859Y023611D01*
X012319Y023841D02*
X012549Y024071D01*
X013010Y024071D01*
X013240Y023841D01*
X013240Y022920D01*
X013010Y022690D01*
X012549Y022690D01*
X012319Y022920D01*
X004953Y022690D02*
X004262Y022690D01*
X004032Y022920D01*
D11*
X035953Y012100D02*
X036467Y012100D01*
X036467Y011100D02*
X035953Y011100D01*
X035953Y010100D02*
X036467Y010100D01*
X036467Y009100D02*
X035953Y009100D01*
X035953Y008100D02*
X036467Y008100D01*
X036467Y007100D02*
X035953Y007100D01*
X035953Y006100D02*
X036467Y006100D01*
X036467Y005100D02*
X035953Y005100D01*
X044953Y005100D02*
X045467Y005100D01*
X045467Y006100D02*
X044953Y006100D01*
X044953Y007100D02*
X045467Y007100D01*
X045467Y008100D02*
X044953Y008100D01*
X044953Y009100D02*
X045467Y009100D01*
X045467Y010100D02*
X044953Y010100D01*
X044953Y011100D02*
X045467Y011100D01*
X045467Y012100D02*
X044953Y012100D01*
D12*
X032970Y012100D02*
X032450Y012100D01*
X032450Y011100D02*
X032970Y011100D01*
X032970Y010100D02*
X032450Y010100D01*
X032450Y009100D02*
X032970Y009100D01*
X032970Y008100D02*
X032450Y008100D01*
X032450Y007100D02*
X032970Y007100D01*
X029970Y007100D02*
X029450Y007100D01*
X029450Y008100D02*
X029970Y008100D01*
X029970Y009100D02*
X029450Y009100D01*
X029450Y010100D02*
X029970Y010100D01*
X029970Y011100D02*
X029450Y011100D01*
X029450Y012100D02*
X029970Y012100D01*
X029970Y013100D02*
X029450Y013100D01*
X029450Y014100D02*
X029970Y014100D01*
X032450Y014100D02*
X032970Y014100D01*
X032970Y013100D02*
X032450Y013100D01*
D13*
X002570Y004120D02*
X002570Y003340D01*
X004540Y003340D02*
X004540Y004120D01*
X006510Y004120D02*
X006510Y003340D01*
X011190Y003370D02*
X011190Y004150D01*
X013160Y004150D02*
X013160Y003370D01*
X015130Y003370D02*
X015130Y004150D01*
X017280Y004200D02*
X017280Y003420D01*
X019250Y003420D02*
X019250Y004200D01*
X021220Y004200D02*
X021220Y003420D01*
X021690Y008340D02*
X021690Y009120D01*
X016970Y009120D02*
X016970Y008340D01*
X014360Y008420D02*
X014360Y009200D01*
X009640Y009200D02*
X009640Y008420D01*
X006700Y008470D02*
X006700Y009250D01*
X001980Y009250D02*
X001980Y008470D01*
X001980Y013270D02*
X001980Y014050D01*
X006700Y014050D02*
X006700Y013270D01*
X009640Y013220D02*
X009640Y014000D01*
X014360Y014000D02*
X014360Y013220D01*
X016970Y013140D02*
X016970Y013920D01*
X021690Y013920D02*
X021690Y013140D01*
X036740Y020210D02*
X036740Y020990D01*
X038710Y020990D02*
X038710Y020210D01*
X040680Y020210D02*
X040680Y020990D01*
D14*
X019330Y014893D02*
X019330Y013828D01*
X012000Y013908D02*
X012000Y014973D01*
X004340Y015023D02*
X004340Y013958D01*
D15*
X031880Y019100D02*
X032540Y019100D01*
X032540Y020100D02*
X031880Y020100D01*
X031880Y021100D02*
X032540Y021100D01*
X043380Y021100D02*
X044040Y021100D01*
X044040Y020100D02*
X043380Y020100D01*
X043380Y019100D02*
X044040Y019100D01*
D16*
X049180Y015730D02*
X049780Y015730D01*
X049780Y014730D02*
X049180Y014730D01*
X049180Y013730D02*
X049780Y013730D01*
X049780Y012730D02*
X049180Y012730D01*
X049190Y010820D02*
X049790Y010820D01*
X049790Y009820D02*
X049190Y009820D01*
X049190Y008820D02*
X049790Y008820D01*
X049800Y006540D02*
X049200Y006540D01*
X049200Y005540D02*
X049800Y005540D01*
X049800Y004540D02*
X049200Y004540D01*
X049200Y003540D02*
X049800Y003540D01*
D17*
X021320Y016370D03*
X017320Y016370D03*
X014550Y016360D03*
X010550Y016360D03*
X006330Y016570D03*
X002330Y016570D03*
D18*
X047860Y007520D03*
X047860Y004520D03*
D19*
X015740Y016260D03*
X015840Y021310D03*
M02*
